<svg width="149" height="128" viewBox="0 0 149 128" fill="none" xmlns="http://www.w3.org/2000/svg">
<path d="M74.3591 127.703L12.59 65.9339C7.66288 61.0068 4.37814 55.2786 2.73577 48.7491C1.13346 42.2197 1.15348 35.7303 2.79585 29.281C4.43822 22.7917 7.70293 17.1435 12.59 12.3366C17.5972 7.40948 23.3054 4.14477 29.7147 2.54246C36.164 0.900091 42.5933 0.900091 49.0025 2.54246C55.4518 4.18483 61.1801 7.44954 66.1873 12.3366L74.3591 20.268L82.5309 12.3366C87.5782 7.44954 93.3064 4.18483 99.7157 2.54246C106.125 0.900091 112.534 0.900091 118.943 2.54246C125.393 4.14477 131.121 7.40948 136.128 12.3366C141.015 17.1435 144.28 22.7917 145.922 29.281C147.565 35.7303 147.565 42.2197 145.922 48.7491C144.32 55.2786 141.055 61.0068 136.128 65.9339L74.3591 127.703Z" fill="white"/>
</svg>
