<svg width="216" height="216" viewBox="0 0 216 216" fill="none" xmlns="http://www.w3.org/2000/svg">
<path d="M108.059 0.803223C86.7791 0.803223 65.9773 7.11338 48.2839 18.9357C30.5905 30.7581 16.8002 47.5616 8.65679 67.2215C0.513415 86.8813 -1.61726 108.514 2.53419 129.385C6.68565 150.256 16.9328 169.427 31.9798 184.474C47.0268 199.521 66.1978 209.768 87.0686 213.92C107.939 218.071 129.573 215.94 149.232 207.797C168.892 199.654 185.696 185.863 197.518 168.17C209.34 150.477 215.651 129.675 215.651 108.395C215.596 79.8768 204.243 52.5421 184.077 32.3766C163.912 12.211 136.577 0.857908 108.059 0.803223ZM145.716 115.327L96.0581 148.432C94.6885 149.279 93.1165 149.744 91.5061 149.777C90.1412 149.776 88.7953 149.457 87.5749 148.846C86.2517 148.131 85.1481 147.07 84.3826 145.776C83.6171 144.482 83.2186 143.004 83.2298 141.5V75.2899C83.2186 73.7864 83.6171 72.3082 84.3826 71.0141C85.1481 69.72 86.2517 68.6589 87.5749 67.9447C88.9034 67.2722 90.384 66.9568 91.8712 67.0293C93.3585 67.1019 94.8013 67.5599 96.0581 68.3585L145.716 101.464C146.869 102.216 147.816 103.244 148.471 104.454C149.126 105.664 149.47 107.019 149.47 108.395C149.47 109.771 149.126 111.126 148.471 112.336C147.816 113.547 146.869 114.574 145.716 115.327Z" fill="white"/>
</svg>
