<svg width="44" height="170" viewBox="0 0 44 170" fill="none" xmlns="http://www.w3.org/2000/svg">
<path d="M43.7318 84.7558C43.7318 89.0806 42.4493 93.3082 40.0466 96.9041C37.6439 100.5 34.2289 103.303 30.2333 104.958C26.2378 106.613 21.8412 107.046 17.5995 106.202C13.3578 105.358 9.46162 103.276 6.40355 100.218C3.34548 97.1596 1.26291 93.2634 0.41919 89.0217C-0.424529 84.7801 0.00849777 80.3835 1.66351 76.3879C3.31853 72.3924 6.1212 68.9773 9.7171 66.5746C13.313 64.1719 17.5407 62.8894 21.8654 62.8894C27.6584 62.91 33.2083 65.2204 37.3046 69.3167C41.4008 73.413 43.7112 78.9628 43.7318 84.7558ZM21.8654 44.1468C26.1902 44.1468 30.4178 42.8644 34.0137 40.4617C37.6096 38.059 40.4123 34.6439 42.0673 30.6484C43.7223 26.6528 44.1554 22.2562 43.3116 18.0145C42.4679 13.7729 40.3854 9.87665 37.3273 6.81859C34.2692 3.76052 30.373 1.67795 26.1313 0.834229C21.8897 -0.0094904 17.4931 0.423537 13.4975 2.07855C9.50196 3.73357 6.08689 6.53624 3.68418 10.1321C1.28147 13.7281 -0.000964784 17.9557 -0.000964784 22.2805C0.0196144 28.0734 2.33 33.6233 6.42629 37.7196C10.5226 41.8159 16.0724 44.1263 21.8654 44.1468ZM21.8654 125.365C17.5407 125.365 13.313 126.647 9.7171 129.05C6.1212 131.453 3.31853 134.868 1.66351 138.863C0.00849777 142.859 -0.424529 147.255 0.41919 151.497C1.26291 155.739 3.34548 159.635 6.40355 162.693C9.46162 165.751 13.3578 167.834 17.5995 168.677C21.8412 169.521 26.2378 169.088 30.2333 167.433C34.2289 165.778 37.6439 162.975 40.0466 159.38C42.4493 155.784 43.7318 151.556 43.7318 147.231C43.7112 141.438 41.4008 135.888 37.3046 131.792C33.2083 127.696 27.6584 125.385 21.8654 125.365Z" fill="#00E0FF"/>
</svg>
