<svg width="51" height="184" viewBox="0 0 51 184" fill="none" xmlns="http://www.w3.org/2000/svg">
<path d="M47.7328 91.7558C47.7328 96.0806 46.4503 100.308 44.0476 103.904C41.6449 107.5 38.2298 110.303 34.2343 111.958C30.2387 113.613 25.8421 114.046 21.6005 113.202C17.3588 112.358 13.4626 110.276 10.4045 107.218C7.34646 104.16 5.26389 100.263 4.42017 96.0217C3.57645 91.7801 4.00947 87.3835 5.66449 83.3879C7.3195 79.3924 10.1222 75.9773 13.7181 73.5746C17.314 71.1719 21.5416 69.8894 25.8664 69.8894C31.6594 69.91 37.2092 72.2204 41.3055 76.3167C45.4018 80.413 47.7122 85.9628 47.7328 91.7558V91.7558ZM25.8664 51.1468C30.1912 51.1468 34.4188 49.8644 38.0147 47.4617C41.6106 45.059 44.4133 41.6439 46.0683 37.6484C47.7233 33.6528 48.1563 29.2562 47.3126 25.0145C46.4689 20.7729 44.3863 16.8767 41.3283 13.8186C38.2702 10.7605 34.374 8.67795 30.1323 7.83423C25.8906 6.99051 21.4941 7.42354 17.4985 9.07855C13.5029 10.7336 10.0879 13.5362 7.68516 17.1321C5.28245 20.7281 4.00001 24.9557 4.00001 29.2805C4.02059 35.0734 6.33097 40.6233 10.4273 44.7196C14.5236 48.8159 20.0734 51.1263 25.8664 51.1468V51.1468ZM25.8664 132.365C21.5416 132.365 17.314 133.647 13.7181 136.05C10.1222 138.453 7.3195 141.868 5.66449 145.863C4.00947 149.859 3.57645 154.255 4.42017 158.497C5.26389 162.739 7.34646 166.635 10.4045 169.693C13.4626 172.751 17.3588 174.834 21.6005 175.677C25.8421 176.521 30.2387 176.088 34.2343 174.433C38.2298 172.778 41.6449 169.975 44.0476 166.38C46.4503 162.784 47.7328 158.556 47.7328 154.231C47.7122 148.438 45.4018 142.888 41.3055 138.792C37.2092 134.696 31.6594 132.385 25.8664 132.365Z" fill="white"/>
</svg>
