<svg width="3124" height="3158" viewBox="0 0 3124 3158" fill="none" xmlns="http://www.w3.org/2000/svg">
<g clip-path="url(#clip0_1_3)">
<rect x="0.00195312" width="3123.77" height="3157.09" fill="white"/>
<path d="M911.721 1777.38C914.181 1776.26 917.982 1775.03 923.125 1773.69C928.492 1772.12 933.859 1771.34 939.226 1771.34C948.617 1771.34 956.444 1772.79 962.705 1775.7C968.966 1778.38 972.768 1782.41 974.109 1787.77C976.569 1796.94 978.805 1805.55 980.818 1813.6C983.054 1821.43 985.178 1829.03 987.191 1836.41C989.204 1843.57 991.104 1850.72 992.893 1857.88C994.906 1865.03 996.806 1872.52 998.595 1880.35H1000.27C1002.29 1866.71 1004.07 1853.74 1005.64 1841.44C1007.2 1828.92 1008.66 1816.73 1010 1804.88C1011.34 1792.81 1012.68 1780.95 1014.02 1769.33C1015.37 1757.47 1016.71 1745.51 1018.05 1733.44C1026.32 1728.74 1035.16 1726.39 1044.55 1726.39C1052.82 1726.39 1059.98 1728.18 1066.02 1731.76C1072.05 1735.34 1075.07 1741.37 1075.07 1749.87C1075.07 1754.79 1074.51 1761.84 1073.39 1771C1072.5 1779.95 1071.16 1790.01 1069.37 1801.19C1067.8 1812.37 1065.9 1824.11 1063.67 1836.41C1061.43 1848.71 1059.08 1860.45 1056.62 1871.63C1054.16 1882.81 1051.59 1892.99 1048.91 1902.15C1046.45 1911.1 1044.1 1918.03 1041.86 1922.95C1038.51 1926.08 1033.03 1928.65 1025.43 1930.66C1017.83 1932.68 1010 1933.68 1001.95 1933.68C991.44 1933.68 982.495 1932.34 975.116 1929.66C967.96 1926.75 963.6 1922.73 962.034 1917.58C959.127 1908.64 955.997 1898.02 952.642 1885.72C949.288 1873.42 945.71 1859.89 941.909 1845.13C938.778 1859.67 935.536 1873.87 932.182 1887.73C928.827 1901.59 925.809 1913.33 923.125 1922.95C919.771 1926.08 914.74 1928.65 908.031 1930.66C901.323 1932.68 893.943 1933.68 885.893 1933.68C875.831 1933.68 866.662 1932.34 858.389 1929.66C850.338 1926.75 845.084 1922.73 842.624 1917.58C840.611 1913.56 838.375 1907.63 835.915 1899.81C833.679 1891.76 831.331 1882.7 828.871 1872.64C826.412 1862.35 823.84 1851.28 821.157 1839.43C818.697 1827.58 816.349 1815.73 814.113 1803.87C812.1 1792.02 810.2 1780.51 808.411 1769.33C806.622 1757.92 805.28 1747.52 804.386 1738.13C807.516 1735.22 811.877 1732.54 817.467 1730.08C823.057 1727.62 829.095 1726.39 835.58 1726.39C844.077 1726.39 851.009 1728.29 856.376 1732.09C861.966 1735.67 865.433 1741.82 866.774 1750.54C870.352 1773.35 873.259 1792.36 875.495 1807.56C877.955 1822.77 879.856 1835.29 881.197 1845.13C882.763 1854.75 883.881 1862.24 884.552 1867.61C885.222 1872.97 885.893 1877.22 886.564 1880.35H888.241C890.254 1871.41 892.155 1863.13 893.943 1855.53C895.732 1847.93 897.521 1840.32 899.31 1832.72C901.323 1824.89 903.335 1816.62 905.348 1807.9C907.36 1798.96 909.485 1788.78 911.721 1777.38ZM1179.23 1936.37C1166.03 1936.37 1153.73 1934.58 1142.33 1931C1131.15 1927.2 1121.31 1921.61 1112.81 1914.23C1104.54 1906.85 1097.94 1897.57 1093.02 1886.39C1088.33 1875.21 1085.98 1862.13 1085.98 1847.14C1085.98 1832.39 1088.33 1819.75 1093.02 1809.24C1097.94 1798.51 1104.31 1789.79 1112.14 1783.08C1119.97 1776.15 1128.91 1771.12 1138.98 1767.98C1149.04 1764.63 1159.32 1762.95 1169.83 1762.95C1181.69 1762.95 1192.42 1764.74 1202.03 1768.32C1211.87 1771.9 1220.26 1776.82 1227.19 1783.08C1234.35 1789.34 1239.83 1796.83 1243.63 1805.55C1247.65 1814.27 1249.66 1823.78 1249.66 1834.06C1249.66 1841.67 1247.54 1847.48 1243.29 1851.5C1239.04 1855.53 1233.12 1858.1 1225.51 1859.22L1142.66 1871.63C1145.12 1879.01 1150.16 1884.6 1157.76 1888.4C1165.36 1891.98 1174.08 1893.77 1183.92 1893.77C1193.09 1893.77 1201.7 1892.65 1209.75 1890.41C1218.02 1887.95 1224.73 1885.16 1229.87 1882.03C1233.45 1884.26 1236.47 1887.4 1238.93 1891.42C1241.39 1895.45 1242.62 1899.69 1242.62 1904.17C1242.62 1914.23 1237.92 1921.72 1228.53 1926.64C1221.38 1930.44 1213.33 1933.01 1204.38 1934.35C1195.44 1935.7 1187.05 1936.37 1179.23 1936.37ZM1169.83 1804.55C1164.47 1804.55 1159.77 1805.44 1155.75 1807.23C1151.94 1809.02 1148.81 1811.37 1146.35 1814.27C1143.89 1816.96 1141.99 1820.09 1140.65 1823.66C1139.53 1827.02 1138.86 1830.48 1138.64 1834.06L1196 1824.67C1195.33 1820.2 1192.87 1815.73 1188.62 1811.25C1184.37 1806.78 1178.11 1804.55 1169.83 1804.55ZM1271.07 1712.64C1273.31 1711.97 1276.89 1711.3 1281.81 1710.63C1286.73 1709.73 1291.76 1709.29 1296.9 1709.29C1301.82 1709.29 1306.18 1709.62 1309.98 1710.29C1314.01 1710.96 1317.36 1712.3 1320.05 1714.32C1322.73 1716.33 1324.74 1719.12 1326.08 1722.7C1327.42 1726.06 1328.1 1730.53 1328.1 1736.12V1768.99C1333.69 1766.75 1338.94 1765.19 1343.86 1764.29C1349 1763.4 1354.59 1762.95 1360.63 1762.95C1371.37 1762.95 1381.54 1764.85 1391.16 1768.66C1400.77 1772.46 1409.27 1778.05 1416.65 1785.43C1424.03 1792.58 1429.84 1801.53 1434.09 1812.26C1438.34 1822.99 1440.46 1835.4 1440.46 1849.49C1440.46 1864.03 1438.23 1876.77 1433.75 1887.73C1429.51 1898.46 1423.47 1907.41 1415.64 1914.56C1407.81 1921.72 1398.2 1927.2 1386.79 1931C1375.61 1934.58 1363.2 1936.37 1349.56 1936.37C1334.8 1936.37 1322.28 1934.58 1312 1931C1301.71 1927.65 1292.99 1923.4 1285.83 1918.25C1275.99 1911.32 1271.07 1902.38 1271.07 1891.42V1712.64ZM1349.56 1891.42C1359.85 1891.42 1367.79 1887.95 1373.38 1881.02C1379.19 1873.87 1382.1 1863.36 1382.1 1849.49C1382.1 1835.4 1379.19 1824.89 1373.38 1817.96C1367.56 1811.03 1359.74 1807.56 1349.9 1807.56C1345.43 1807.56 1341.51 1808.01 1338.16 1808.91C1335.03 1809.8 1331.56 1811.14 1327.76 1812.93V1886.05C1330.22 1887.62 1333.13 1888.96 1336.48 1890.08C1340.06 1890.97 1344.42 1891.42 1349.56 1891.42ZM1539.7 1762.95C1548.86 1762.95 1557.81 1764.29 1566.53 1766.98C1575.47 1769.44 1583.19 1773.24 1589.67 1778.38C1596.38 1773.91 1603.87 1770.22 1612.15 1767.31C1620.64 1764.41 1630.82 1762.95 1642.67 1762.95C1651.17 1762.95 1659.44 1764.07 1667.49 1766.31C1675.76 1768.54 1683.03 1772.12 1689.29 1777.04C1695.78 1781.74 1700.92 1788.11 1704.72 1796.16C1708.52 1803.99 1710.43 1813.6 1710.43 1825.01V1930.66C1708.19 1931.34 1704.61 1932.01 1699.69 1932.68C1695 1933.35 1690.08 1933.68 1684.93 1933.68C1680.01 1933.68 1675.54 1933.35 1671.52 1932.68C1667.71 1932.01 1664.47 1930.66 1661.79 1928.65C1659.11 1926.64 1656.98 1923.96 1655.42 1920.6C1654.07 1917.02 1653.4 1912.44 1653.4 1906.85V1826.68C1653.4 1819.98 1651.5 1815.17 1647.7 1812.26C1643.9 1809.13 1638.76 1807.56 1632.27 1807.56C1629.14 1807.56 1625.79 1808.35 1622.21 1809.91C1618.63 1811.25 1615.95 1812.71 1614.16 1814.27C1614.38 1815.17 1614.49 1816.06 1614.49 1816.96C1614.49 1817.63 1614.49 1818.3 1614.49 1818.97V1930.66C1612.03 1931.34 1608.35 1932.01 1603.43 1932.68C1598.73 1933.35 1593.92 1933.68 1589 1933.68C1584.08 1933.68 1579.61 1933.35 1575.59 1932.68C1571.78 1932.01 1568.54 1930.66 1565.86 1928.65C1563.17 1926.64 1561.05 1923.96 1559.49 1920.6C1558.14 1917.02 1557.47 1912.44 1557.47 1906.85V1826.68C1557.47 1819.98 1555.35 1815.17 1551.1 1812.26C1547.07 1809.13 1542.15 1807.56 1536.34 1807.56C1532.32 1807.56 1528.85 1808.24 1525.94 1809.58C1523.04 1810.7 1520.58 1811.81 1518.56 1812.93V1930.66C1516.33 1931.34 1512.75 1932.01 1507.83 1932.68C1503.13 1933.35 1498.21 1933.68 1493.07 1933.68C1488.15 1933.68 1483.68 1933.35 1479.65 1932.68C1475.85 1932.01 1472.61 1930.66 1469.93 1928.65C1467.24 1926.64 1465.12 1923.96 1463.55 1920.6C1462.21 1917.02 1461.54 1912.44 1461.54 1906.85V1805.55C1461.54 1799.51 1462.77 1794.71 1465.23 1791.13C1467.91 1787.55 1471.49 1784.2 1475.96 1781.07C1483.57 1775.7 1492.96 1771.34 1504.14 1767.98C1515.54 1764.63 1527.4 1762.95 1539.7 1762.95ZM1738.5 1770.33C1740.74 1769.66 1744.2 1768.99 1748.9 1768.32C1753.82 1767.65 1758.85 1767.31 1763.99 1767.31C1768.91 1767.31 1773.27 1767.65 1777.07 1768.32C1781.1 1768.99 1784.45 1770.33 1787.14 1772.35C1789.82 1774.36 1791.83 1777.15 1793.18 1780.73C1794.74 1784.08 1795.52 1788.56 1795.52 1794.15V1866.26C1795.52 1875.43 1797.76 1882.03 1802.23 1886.05C1806.7 1889.85 1813.19 1891.76 1821.69 1891.76C1826.83 1891.76 1830.97 1891.31 1834.1 1890.41C1837.45 1889.52 1840.02 1888.62 1841.81 1887.73V1770.33C1844.05 1769.66 1847.51 1768.99 1852.21 1768.32C1857.13 1767.65 1862.16 1767.31 1867.3 1767.31C1872.22 1767.31 1876.58 1767.65 1880.39 1768.32C1884.41 1768.99 1887.76 1770.33 1890.45 1772.35C1893.13 1774.36 1895.14 1777.15 1896.49 1780.73C1898.05 1784.08 1898.83 1788.56 1898.83 1794.15V1896.12C1898.83 1907.3 1894.14 1915.68 1884.75 1921.27C1876.92 1926.19 1867.53 1929.88 1856.57 1932.34C1845.84 1935.03 1834.1 1936.37 1821.35 1936.37C1809.28 1936.37 1798.09 1935.03 1787.81 1932.34C1777.75 1929.66 1769.02 1925.52 1761.65 1919.93C1754.27 1914.34 1748.56 1907.18 1744.54 1898.46C1740.51 1889.52 1738.5 1878.79 1738.5 1866.26V1770.33ZM2064.54 1882.36C2064.54 1899.36 2058.17 1912.66 2045.42 1922.28C2032.68 1931.89 2013.89 1936.7 1989.07 1936.7C1979.68 1936.7 1970.96 1936.03 1962.91 1934.69C1954.86 1933.35 1947.93 1931.34 1942.11 1928.65C1936.52 1925.75 1932.05 1922.17 1928.7 1917.92C1925.57 1913.67 1924 1908.64 1924 1902.82C1924 1897.46 1925.12 1892.99 1927.35 1889.41C1929.59 1885.61 1932.27 1882.48 1935.4 1880.02C1941.89 1883.59 1949.27 1886.84 1957.54 1889.74C1966.04 1892.43 1975.77 1893.77 1986.72 1893.77C1993.66 1893.77 1998.91 1892.76 2002.49 1890.75C2006.29 1888.74 2008.19 1886.05 2008.19 1882.7C2008.19 1879.57 2006.85 1877.11 2004.17 1875.32C2001.48 1873.53 1997.01 1872.08 1990.75 1870.96L1980.69 1868.95C1961.23 1865.15 1946.7 1859.22 1937.08 1851.17C1927.69 1842.9 1922.99 1831.16 1922.99 1815.95C1922.99 1807.68 1924.78 1800.19 1928.36 1793.48C1931.94 1786.77 1936.97 1781.18 1943.46 1776.71C1949.94 1772.23 1957.65 1768.77 1966.6 1766.31C1975.77 1763.85 1985.83 1762.62 1996.79 1762.62C2005.06 1762.62 2012.78 1763.29 2019.93 1764.63C2027.31 1765.75 2033.68 1767.54 2039.05 1770C2044.42 1772.46 2048.67 1775.7 2051.8 1779.72C2054.93 1783.53 2056.49 1788.11 2056.49 1793.48C2056.49 1798.62 2055.49 1803.09 2053.47 1806.89C2051.68 1810.47 2049.34 1813.49 2046.43 1815.95C2044.64 1814.83 2041.96 1813.71 2038.38 1812.6C2034.8 1811.25 2030.89 1810.14 2026.64 1809.24C2022.39 1808.12 2018.03 1807.23 2013.56 1806.56C2009.31 1805.89 2005.4 1805.55 2001.82 1805.55C1994.44 1805.55 1988.74 1806.45 1984.71 1808.24C1980.69 1809.8 1978.67 1812.37 1978.67 1815.95C1978.67 1818.41 1979.79 1820.42 1982.03 1821.99C1984.26 1823.55 1988.51 1825.01 1994.77 1826.35L2005.17 1828.7C2026.64 1833.62 2041.85 1840.44 2050.79 1849.16C2059.96 1857.65 2064.54 1868.72 2064.54 1882.36ZM2084.06 1722.7C2084.06 1714.21 2086.86 1707.05 2092.45 1701.24C2098.26 1695.42 2105.86 1692.51 2115.25 1692.51C2124.65 1692.51 2132.14 1695.42 2137.73 1701.24C2143.54 1707.05 2146.45 1714.21 2146.45 1722.7C2146.45 1731.2 2143.54 1738.36 2137.73 1744.17C2132.14 1749.98 2124.65 1752.89 2115.25 1752.89C2105.86 1752.89 2098.26 1749.98 2092.45 1744.17C2086.86 1738.36 2084.06 1731.2 2084.06 1722.7ZM2143.77 1930.66C2141.31 1931.11 2137.62 1931.67 2132.7 1932.34C2128 1933.24 2123.19 1933.68 2118.27 1933.68C2113.35 1933.68 2108.88 1933.35 2104.86 1932.68C2101.05 1932.01 2097.81 1930.66 2095.13 1928.65C2092.45 1926.64 2090.32 1923.96 2088.76 1920.6C2087.41 1917.02 2086.74 1912.44 2086.74 1906.85V1770.33C2089.2 1769.89 2092.78 1769.33 2097.48 1768.66C2102.4 1767.76 2107.32 1767.31 2112.24 1767.31C2117.16 1767.31 2121.52 1767.65 2125.32 1768.32C2129.34 1768.99 2132.7 1770.33 2135.38 1772.35C2138.06 1774.36 2140.08 1777.15 2141.42 1780.73C2142.98 1784.08 2143.77 1788.56 2143.77 1794.15V1930.66ZM2265.26 1807.9C2259.67 1807.9 2254.31 1808.79 2249.16 1810.58C2244.24 1812.37 2239.88 1815.06 2236.08 1818.63C2232.5 1821.99 2229.6 1826.24 2227.36 1831.38C2225.13 1836.52 2224.01 1842.56 2224.01 1849.49C2224.01 1863.36 2227.92 1873.75 2235.75 1880.69C2243.8 1887.62 2253.52 1891.08 2264.93 1891.08C2271.64 1891.08 2277.45 1890.3 2282.37 1888.74C2287.29 1887.17 2291.65 1885.49 2295.45 1883.71C2299.92 1886.84 2303.28 1890.3 2305.52 1894.1C2307.75 1897.68 2308.87 1902.04 2308.87 1907.18C2308.87 1916.35 2304.51 1923.51 2295.79 1928.65C2287.07 1933.57 2274.99 1936.03 2259.56 1936.03C2245.47 1936.03 2232.73 1934.02 2221.32 1929.99C2209.92 1925.75 2200.08 1919.93 2191.81 1912.55C2183.76 1904.95 2177.5 1895.89 2173.02 1885.38C2168.55 1874.87 2166.31 1863.24 2166.31 1850.5C2166.31 1835.74 2168.66 1822.88 2173.36 1811.92C2178.28 1800.74 2184.87 1791.58 2193.15 1784.42C2201.42 1777.26 2210.93 1771.9 2221.66 1768.32C2232.62 1764.74 2244.13 1762.95 2256.21 1762.95C2272.31 1762.95 2284.72 1765.86 2293.44 1771.67C2302.16 1777.49 2306.52 1784.98 2306.52 1794.15C2306.52 1798.4 2305.52 1802.42 2303.5 1806.22C2301.49 1809.8 2299.14 1812.93 2296.46 1815.61C2292.66 1813.83 2288.07 1812.15 2282.71 1810.58C2277.34 1808.79 2271.53 1807.9 2265.26 1807.9Z" fill="black"/>
<path d="M3104.5 3157.5L-0.5 2501.5V3157.5H3104.5Z" fill="black" stroke="black"/>
</g>
<defs>
<clipPath id="clip0_1_3">
<rect width="3123.77" height="3157.09" fill="white"/>
</clipPath>
</defs>
</svg>
