<svg width="201" height="201" viewBox="0 0 201 201" fill="none" xmlns="http://www.w3.org/2000/svg">
<g clip-path="url(#clip0_1_11)">
<path d="M150.108 90.7971C123.452 74.97 78.886 73.304 53.4794 81.2176C49.3143 82.4671 45.1493 79.968 43.8998 76.2195C42.6503 72.0545 45.1493 67.8895 48.8978 66.64C78.4695 57.8934 127.2 59.5594 158.021 77.8855C161.77 79.968 163.02 84.9661 160.937 88.7146C158.854 91.6301 153.856 92.8796 150.108 90.7971ZM149.275 114.121C147.192 117.037 143.444 118.286 140.528 116.204C118.037 102.459 83.884 98.2942 57.6444 106.624C54.3124 107.457 50.5639 105.791 49.7308 102.459C48.8978 99.1272 50.5639 95.3786 53.8959 94.5456C84.3006 85.3826 121.786 89.9641 147.609 105.791C150.108 107.041 151.357 111.206 149.275 114.121ZM139.279 137.029C137.613 139.528 134.697 140.361 132.198 138.695C112.623 126.616 88.0491 124.117 58.8939 130.781C55.9784 131.614 53.4794 129.532 52.6464 127.033C51.8134 124.117 53.8959 121.618 56.3949 120.785C88.0491 113.705 115.538 116.62 137.196 129.948C140.112 131.198 140.528 134.53 139.279 137.029ZM100.961 16.6597C90.0215 16.6597 79.1894 18.8143 69.0829 23.0005C58.9764 27.1868 49.7935 33.3227 42.0583 41.0578C26.4364 56.6797 17.6602 77.8675 17.6602 99.9602C17.6602 122.053 26.4364 143.241 42.0583 158.863C49.7935 166.598 58.9764 172.734 69.0829 176.92C79.1894 181.106 90.0215 183.261 100.961 183.261C123.053 183.261 144.241 174.484 159.863 158.863C175.485 143.241 184.261 122.053 184.261 99.9602C184.261 89.021 182.107 78.1889 177.92 68.0824C173.734 57.976 167.598 48.793 159.863 41.0578C152.128 33.3227 142.945 27.1868 132.838 23.0005C122.732 18.8143 111.9 16.6597 100.961 16.6597Z" fill="#00E0FF"/>
</g>
<defs>
<clipPath id="clip0_1_11">
<rect width="199.921" height="199.921" fill="white" transform="translate(0.902344 0.38916)"/>
</clipPath>
</defs>
</svg>
