<svg width="1444" height="1213" viewBox="0 0 1444 1213" fill="none" xmlns="http://www.w3.org/2000/svg">
<path fill-rule="evenodd" clip-rule="evenodd" d="M660.066 1193.52C628.301 1193.62 597.437 1194.71 565.583 1194.82C436.099 1195.25 305.424 1194.63 175.47 1189.35C138.741 1187.86 129.572 1187.9 93.0013 1185.58C71.4079 1185.5 6.54635 1183.71 9.79344 1154.16C11.2268 1099.13 24.7889 1044.32 29.0608 989.439C37.2592 886.264 44.2403 779.859 85.4078 683.355C94.9367 660.309 115.402 645.238 135.661 631.685C155.976 617.065 160.963 600.832 179.714 584.316C183.678 580.823 206.193 579.403 218.307 570.544C235.938 557.65 244.682 536.541 251.261 532.947C256.101 530.304 256.012 512.062 265.715 505.606C278.734 496.942 320.223 490.499 335.317 489.294C349.805 488.137 375.004 490.567 388.598 495.896C411.266 504.785 420.307 521.739 430.29 543.583C562.18 584.535 682.73 653.882 720.169 793.759C752.456 911.07 753.636 1036.85 741.161 1157.16C738.669 1165.96 740.415 1179.75 732.851 1185.58C759.147 1187.1 663.634 1192.55 660.066 1193.52Z" fill="white"/>
<path fill-rule="evenodd" clip-rule="evenodd" d="M60.1863 1077.69C62.6822 1076.44 65.2839 1075 68.1346 1074.9C73.0293 1074.73 73.0359 1067.08 68.1346 1067.25C63.859 1067.4 60.1042 1069.19 56.3428 1071.08C51.953 1073.28 55.8144 1079.88 60.1863 1077.69ZM68.1346 862.323C64.7941 862.326 61.4272 862.749 58.8614 865.097C57.3365 866.493 57.4573 869.095 58.8614 870.507C60.3647 872.016 62.7275 871.898 64.2478 870.507C63.7514 870.96 64.243 870.51 64.4223 870.41C64.4657 870.387 64.4893 870.371 64.5007 870.361C64.5384 870.351 64.5771 870.344 64.6384 870.328C65.0367 870.227 65.4301 870.129 65.8321 870.056C65.8387 870.074 66.6824 869.999 66.8805 869.991C67.2995 869.976 67.7166 869.974 68.1346 869.974C70.2003 869.973 71.9422 868.224 71.9422 866.149C71.9422 864.083 70.1927 862.322 68.1346 862.323ZM103.942 948.149C105.033 952.954 112.374 950.907 111.286 946.111C109.703 939.145 109.992 931.999 111.286 925.005C112.176 920.19 104.836 918.143 103.942 922.977C102.39 931.364 102.043 939.78 103.942 948.149ZM113.561 673.172C119.232 671.819 124.842 671.658 130.644 671.656C135.552 671.654 135.544 664.003 130.644 664.005C124.173 664.007 117.856 664.286 111.536 665.794C106.763 666.933 108.796 674.309 113.561 673.172ZM132.565 859.536C135.854 857.884 139.145 856.231 142.434 854.578C146.824 852.374 142.963 845.776 138.591 847.971L128.721 852.93C124.333 855.134 128.194 861.732 132.565 859.536ZM133.935 1010.21C138.108 1016.25 143.975 1020.01 151.015 1021.88C155.765 1023.14 157.773 1015.76 153.04 1014.5C148.005 1013.16 143.532 1010.72 140.511 1006.35C137.734 1002.32 131.135 1006.15 133.935 1010.21ZM160.25 740.825C161.379 738.706 163.079 737.81 165.188 737.763C170.088 737.65 170.089 729.999 165.188 730.112C160.381 730.221 155.972 732.646 153.675 736.964C151.362 741.309 157.94 745.169 160.25 740.825ZM208.554 792.832C209.919 794.326 212.566 794.288 213.939 792.832C214.78 791.941 215.486 790.945 216.042 789.854C216.253 789.44 216.452 789.018 216.684 788.615C216.788 788.437 216.903 788.259 217.021 788.086C217.062 788.051 217.144 787.965 217.23 787.874C218.693 786.32 218.656 784.025 217.23 782.463C215.864 780.97 213.216 781.007 211.843 782.463C211.005 783.355 210.297 784.351 209.742 785.442C209.531 785.856 209.331 786.278 209.098 786.682C208.995 786.86 208.879 787.037 208.762 787.209C208.722 787.245 208.64 787.331 208.554 787.422C207.09 788.976 207.127 791.271 208.554 792.832ZM212.615 905.813C217.574 908.088 223.014 908.088 227.974 905.813C229.852 904.951 230.297 902.221 229.339 900.572C228.229 898.667 225.998 898.345 224.13 899.207C221.88 900.24 218.705 900.24 216.458 899.207C214.581 898.345 212.372 898.648 211.249 900.572C210.285 902.231 210.744 904.951 212.615 905.813ZM226.143 985.784C226.996 987.802 228.836 988.883 230.987 988.968C233.118 989.044 234.705 987.148 234.795 985.139C234.851 983.841 234.154 982.732 233.152 982.05C233.15 981.974 233.148 981.907 233.148 981.831C233.147 979.69 231.404 978.097 229.341 978.012C227.285 977.917 225.532 979.832 225.533 981.831C225.534 983.187 225.617 984.523 226.143 985.784ZM245.791 1112.91C251.869 1113.01 257.807 1114.47 263.885 1114.56C268.796 1114.65 268.781 1107 263.885 1106.91C257.808 1106.82 251.87 1105.36 245.791 1105.27C240.88 1105.18 240.895 1112.84 245.791 1112.91ZM271.064 622.608C274.621 626.013 279.016 627.691 283.349 629.818C287.739 631.973 291.596 625.372 287.193 623.211C283.522 621.409 279.458 620.078 276.448 617.198C272.897 613.801 267.506 619.206 271.064 622.608ZM280.613 710.798C283.109 709.546 285.711 708.115 288.56 708.015C293.456 707.843 293.462 700.191 288.56 700.364C284.285 700.513 280.531 702.304 276.769 704.191C272.377 706.393 276.24 712.99 280.613 710.798ZM326.394 1064.75C327.52 1062.63 329.22 1061.73 331.329 1061.68C336.231 1061.57 336.233 1053.92 331.329 1054.03C326.522 1054.14 322.113 1056.57 319.816 1060.88C317.505 1065.23 324.081 1069.09 326.394 1064.75ZM342.247 898.601C343.762 897.207 343.657 894.611 342.247 893.189C340.602 891.539 338.957 889.886 337.312 888.234C335.807 886.722 333.447 886.832 331.927 888.234C330.412 889.631 330.517 892.222 331.927 893.644C333.573 895.293 335.217 896.952 336.862 898.601C338.367 900.117 340.727 900.003 342.247 898.601ZM360.939 1157.53C366.433 1157.41 371.584 1155.83 376.757 1154.09C381.391 1152.55 379.392 1145.16 374.732 1146.72C370.235 1148.22 365.719 1149.77 360.939 1149.89C356.038 1150 356.036 1157.65 360.939 1157.53ZM385.614 993.925C390.578 993.783 394.695 991.243 398.177 987.84C401.697 984.409 396.306 978.998 392.791 982.438C390.798 984.381 388.5 986.191 385.614 986.276C380.715 986.409 380.711 994.057 385.614 993.925ZM370.292 783.516C370.232 785.553 369.375 787.735 368.117 789.075C364.751 792.655 370.13 798.073 373.501 794.484C376.283 791.526 377.79 787.565 377.907 783.516C378.048 778.582 370.432 778.604 370.292 783.516ZM428.381 616.876C429.975 613.741 432.063 610.065 435.239 608.333C439.554 605.981 435.706 599.377 431.396 601.727C427.078 604.081 423.987 608.721 421.805 613.014C419.577 617.396 426.151 621.262 428.381 616.876ZM438.252 696.446C440.019 696.396 441.773 696.092 443.476 695.627C444.205 695.428 444.925 695.2 445.654 695.001C445.966 694.916 447.293 694.75 446.477 694.793C448.539 694.682 450.285 693.131 450.285 690.968C450.285 688.98 448.533 687.031 446.477 687.142C443.651 687.295 441.081 688.714 438.252 688.795C433.355 688.933 433.351 696.584 438.252 696.446ZM462.927 818.742H471.152C476.061 818.742 476.052 811.091 471.152 811.091H462.927C458.019 811.091 458.027 818.742 462.927 818.742ZM472.521 1157.01C475.015 1158.26 477.954 1159.46 479.975 1161.37C483.537 1164.76 488.929 1159.35 485.36 1155.96C482.787 1153.52 479.497 1151.98 476.364 1150.41C474.518 1149.48 472.249 1149.89 471.154 1151.78C470.165 1153.48 470.682 1156.09 472.521 1157.01ZM490.898 1060.34C491.217 1060.25 491.554 1060.19 491.877 1060.14C493.172 1059.97 494.527 1060.03 495.827 1060.03C500.735 1060.03 500.727 1052.37 495.827 1052.38C491.965 1052.38 487.946 1052.44 484.909 1055.15C483.367 1056.53 483.517 1059.17 484.909 1060.56C486.423 1062.09 488.759 1061.93 490.294 1060.56C490.132 1060.71 490.687 1060.4 490.898 1060.34ZM495.825 930.322C494.718 928.028 494.701 926.54 494.699 923.991C494.696 919.062 487.08 919.072 487.084 923.991C487.086 927.687 487.633 930.833 489.249 934.188C490.15 936.056 492.789 936.539 494.458 935.563C496.329 934.463 496.721 932.179 495.825 930.322ZM517.844 750.847C522.261 752.356 526.204 754.492 530.094 757.072C534.2 759.794 538.011 753.166 533.938 750.465C529.499 747.523 524.907 745.191 519.869 743.468C515.211 741.877 513.229 749.27 517.844 750.847ZM543.531 622.077C546.812 622.168 550.199 623.433 553.123 624.86C557.519 627.004 561.376 620.404 556.967 618.252C552.789 616.214 548.219 614.557 543.531 614.425C538.62 614.287 538.64 621.939 543.531 622.077ZM555.046 965.824C556.337 965.891 557.44 965.189 558.124 964.175C558.195 964.175 558.265 964.175 558.336 964.175C560.47 964.175 562.05 962.422 562.144 960.346C562.236 958.29 560.327 956.527 558.336 956.527C556.991 956.527 555.658 956.612 554.409 957.133C552.392 957.996 551.32 959.844 551.238 962.005C551.157 964.147 553.048 965.739 555.046 965.824ZM573.773 701.267C578.451 702.802 580.436 695.412 575.798 693.89C570.354 692.102 564.791 690.718 559.348 688.93C554.671 687.396 552.685 694.786 557.324 696.309C562.767 698.096 568.33 699.48 573.773 701.267ZM590.852 845.682C592.304 850.378 599.652 848.362 598.197 843.648C596.792 839.097 596.691 834.518 596.688 829.79C596.685 824.859 589.07 824.867 589.073 829.79C589.075 835.171 589.255 840.503 590.852 845.682ZM641.77 1018.65C642.047 1020.56 643.551 1021.93 645.52 1022.02C647.523 1022.11 649.4 1020.2 649.327 1018.2C649.188 1014.34 646.062 1011.2 642.229 1011.06C640.097 1010.98 638.511 1012.88 638.421 1014.89C638.334 1016.84 639.958 1018.37 641.77 1018.65ZM667.537 798.774C671.561 800.123 675.861 801.408 679.015 804.401C682.58 807.78 687.972 802.378 684.401 798.99C680.241 795.045 674.89 793.183 669.561 791.396C664.895 789.831 662.912 797.222 667.537 798.774ZM685.001 947.409C686.107 949.305 688.347 949.646 690.21 948.784C692.708 947.608 695.466 947.656 698.159 947.646C703.066 947.646 703.058 939.998 698.159 939.998C694.004 939.998 690.172 940.396 686.365 942.168C684.493 943.05 684.037 945.751 685.001 947.409ZM694.868 1127.78C697.001 1127.87 698.586 1125.97 698.676 1123.96C698.764 1122.01 697.141 1120.49 695.327 1120.2C695.052 1118.3 693.546 1116.92 691.579 1116.83C689.574 1116.74 687.698 1118.66 687.77 1120.66C687.911 1124.5 691.034 1127.65 694.868 1127.78ZM1.06028 1156.72C2.35402 1152.04 5.31518 1148.26 7.55162 1144.06C8.30182 1142.64 8.56322 1141.75 8.96993 1140.72C9.52196 1141.83 10.5939 1142.66 12.2047 1142.66C15.2971 1142.66 18.9131 1142.46 21.7988 1143.79C23.6747 1144.65 25.8857 1144.35 27.0077 1142.42C27.9721 1140.76 27.5116 1138.05 25.6423 1137.19C21.3893 1135.23 16.8182 1135.02 12.2047 1135.01C11.0658 1135.01 10.2033 1135.43 9.59367 1136.07C7.83094 1111.81 7.87435 1087.54 9.54271 1063.27C11.3215 1037.33 15.416 1011.91 19.7001 986.305C21.7742 973.889 24.4684 961.351 23.9446 948.708C23.4209 936.15 18.0619 924.446 21.8601 911.85C23.3832 906.799 25.9914 902.174 27.6862 897.179C29.5037 891.805 29.3423 886.497 28.5138 880.931C26.8105 869.598 23.9833 858.398 28.5053 847.332C30.5039 842.426 33.7416 838.046 35.3014 832.977C37.2435 826.674 36.9764 819.702 37.301 813.17C37.9578 799.991 38.1286 786.725 39.2147 773.575C39.6997 767.683 40.7557 762.098 43.1648 756.694C45.4786 751.492 48.9145 746.758 50.4469 741.239C51.97 735.807 52.103 730.078 52.9221 724.521C53.7789 718.649 55.1208 712.863 56.9298 707.22C63.9175 685.375 76.7209 665.75 91.8475 648.737C107.926 630.651 127.146 617.032 147.546 604.34C158.274 597.666 169 590.992 179.72 584.318C179.949 585.57 180.744 586.721 182.27 587.234C186.295 588.584 190.593 589.867 193.749 592.86C197.313 596.24 202.706 590.838 199.134 587.451C195.409 583.917 190.726 582.056 185.96 580.421C190.844 577.329 195.782 574.125 201.293 572.339C206.121 570.77 213.24 572.138 217.154 568.58C220.228 565.778 221.2 560.585 222.379 556.778C223.855 552.053 225.13 547.071 227.006 542.48C228.282 539.343 230.138 536.33 232.479 533.901C233.508 529.923 235.393 526.288 238.725 524.079C247.444 518.283 258.154 524.041 261.99 532.304C265.16 532.295 268.501 532.992 271.586 533.184C277.926 533.586 284.275 533.768 290.625 533.749C303.048 533.71 315.48 532.897 327.799 531.243C349.826 528.277 371.198 522.3 392.855 517.643C392.978 517.356 393.122 517.068 393.292 516.782C397.958 508.921 409.581 510.249 416.902 513.224C420.043 514.496 423.241 516.103 425.04 519.087C426.945 520.378 428.591 521.946 429.686 523.601C431.952 527.015 433.703 533.901 438.301 534.476C441.329 534.848 444.403 534.265 447.477 534.705C451.324 535.24 454.77 536.599 458.321 538.148C485.356 549.94 513.305 563.052 542.645 567.624C549.527 568.695 556.534 569.805 562.512 573.678C567.367 576.825 571.119 581.147 575.125 585.25C579.028 589.249 582.246 591.017 587.815 591.734C594.574 592.605 600.428 594.479 605.368 599.415C609.471 603.518 612.147 608.759 615.364 613.521C618.64 618.38 623.447 621.116 628.435 623.937C640.229 630.613 651.214 638.675 660.782 648.344C680.935 668.735 693.139 694.94 705.438 720.476C718.737 748.096 731.17 776.052 739.79 805.547C748.245 834.507 753.274 864.299 755.596 894.364C758.04 925.924 758.389 957.598 760.427 989.167C761.437 1004.94 762.211 1020.73 762.994 1036.51C763.758 1052.1 764.872 1067.72 764.693 1083.33C764.343 1113.5 758.342 1143.77 747.839 1172.02C745.216 1179.05 742.319 1185.99 739.224 1192.81C736.506 1198.81 727.228 1198.14 724.315 1192.81C723.649 1191.59 723.125 1190.33 722.687 1189.05C715.072 1189.11 707.38 1188.52 699.812 1189.23C686.446 1190.48 673.053 1191.18 659.65 1192.01C633.128 1193.66 606.558 1194.76 580.028 1196.29C577.453 1196.43 574.88 1196.58 572.307 1196.73C591.214 1137.94 588.761 1074.38 591.753 1013.24C591.994 1008.3 584.376 1008.33 584.137 1013.24C581.133 1074.64 583.691 1138.37 564.116 1197.25C556.521 1197.77 548.937 1198.4 541.379 1199.33C535.268 1200.06 529.126 1200.93 522.958 1200.63C515.962 1200.3 509.127 1198.68 502.301 1197.29C489.897 1194.75 477.95 1195.9 465.498 1197.46C452.181 1199.13 438.815 1200.06 425.411 1200.65C371.74 1203.01 317.707 1205.16 264.055 1201.56C251.071 1200.68 238.115 1199.46 225.216 1197.79C211.926 1196.09 198.781 1193.21 185.502 1191.57C172.412 1189.97 160.379 1194.37 147.441 1195.19C134.248 1196.01 120.701 1193.25 107.631 1191.66C103.367 1191.14 99.0985 1190.64 94.8294 1190.14C100.325 1152.29 103.451 1114.16 106.486 1076.04C106.878 1071.12 99.2589 1071.17 98.8711 1076.04C95.8599 1113.86 92.8044 1151.71 87.3161 1189.25C64.6837 1186.61 42.0287 1183.94 19.6322 1179.82C13.2541 1178.65 6.91467 1176.74 3.09667 1171.03C0.270455 1166.79 -0.301399 1161.6 1.06028 1156.72Z" fill="black"/>
<path fill-rule="evenodd" clip-rule="evenodd" d="M172.092 354.048C174.141 335.958 171.49 298.146 171.311 295.848C170.188 281.326 176.961 223.977 189.765 229.261C211.243 212.179 239.85 208.407 266.6 206.605C322.163 202.861 381.272 211.455 424.177 249.022C445.395 268.532 466.051 296.907 464.391 326.452C483.669 354.458 510.846 392.874 486.827 425.613C478.662 436.074 465.686 439.969 455.429 447.891C434.799 464.609 421.856 488.601 401.03 505.219C345.855 555.032 252.166 565.437 197.956 508.78C156.036 467.747 162.815 406.359 170.188 354.048C175.145 318.879 168.094 389.34 172.092 354.048Z" fill="white"/>
<path fill-rule="evenodd" clip-rule="evenodd" d="M340.819 129.89C325.959 126.877 310.7 125.003 295.525 125.567L294.355 125.613C282.937 126.071 268.478 127.085 258.517 133.756C257.944 133.178 257.023 132.881 256.187 133.282C244.351 138.958 231.331 143.063 218.868 147.14C206.462 151.198 193.592 153.878 180.589 154.957C175.697 155.364 171.51 160.671 174.608 165.431C175.345 166.565 176.063 167.711 176.778 168.86C175.582 168.735 174.387 168.605 173.191 168.483C169.256 168.085 165.326 172.305 165.559 176.153C165.705 178.574 165.965 180.965 166.35 183.329C164.851 183.298 163.361 183.523 161.922 184.134C154.633 187.226 155.141 195.948 155.686 202.583C156.442 211.791 159.871 221.545 166.235 228.437C161.482 233.395 158.118 239.318 156.112 246.351C154.656 251.487 153.846 256.957 154.246 262.303L154.374 263.904C154.868 269.706 155.851 276.129 160.006 280.303C162.138 282.455 164.765 283.239 167.27 282.991C165.755 296.361 164.784 309.808 163.871 323.207L163.441 329.611C161.403 360.58 159.872 391.749 160.272 422.768C160.644 451.756 166.345 479.894 184.042 503.431C200.16 524.863 223.301 540.663 249.479 546.67C263.588 549.912 277.991 550.142 292.27 548.076C299.191 547.071 306.158 545.532 312.728 543.102C320 540.405 325.227 536.436 330.119 530.487C332.433 527.666 331.32 521.66 326.711 522.224C319.742 523.073 313.379 524.097 306.697 526.168L305.74 526.471C299.086 528.613 292.193 530.21 285.236 530.889C270.984 532.276 256.515 530.88 242.863 526.537C220.635 519.46 201.491 503.689 189.221 483.873C174.656 460.384 173.009 433.719 173.219 406.71C173.445 377.073 174.405 347.418 175.97 317.812L176.237 312.878C177.066 297.643 177.865 282.397 178.568 267.152C178.788 262.371 179.121 257.55 179.721 252.778C185.213 249.545 190.134 245.089 193.343 239.589C199.788 242.267 206.565 244.199 212.802 245.739C227.247 249.308 242.243 250.174 256.946 247.939C260.912 249.586 264.957 251.033 269.064 252.277C270.174 252.772 271.284 253.258 272.393 253.734C282.295 257.99 292.338 261.595 302.789 264.236L305.356 264.878C310.857 266.241 316.831 267.582 322.685 268.004C323.646 268.377 324.684 268.692 325.817 268.97C331.147 270.27 336.68 270.681 342.142 270.223C347.465 269.773 351.311 264.369 348.379 259.31C346.237 255.618 344.075 251.936 341.895 248.263C349.482 251.438 357.316 254.079 365.217 256.316C373.195 258.574 381.287 260.477 389.389 262.227C393.72 263.154 398.07 263.977 402.391 264.905C405.486 265.565 410.236 265.91 412.759 267.956C415.548 270.204 416.338 275.445 417.395 278.678C418.785 282.876 420.09 287.094 421.279 291.359C423.649 299.871 425.591 308.507 427.095 317.23C428.599 325.961 429.609 334.779 430.17 343.626C430.731 352.463 430.485 361.358 431.388 370.157C431.875 374.824 436.862 377.225 440.546 373.963C440.978 373.581 441.414 373.194 441.845 372.803L442.488 372.213C445.64 369.343 448.695 366.302 451.218 362.879C451.674 362.248 452.112 361.587 452.522 360.918C452.588 360.918 452.645 360.899 452.711 360.851L453.411 360.322C461.11 354.565 473.973 347.059 481.48 356.624C483.872 359.671 485.097 363.551 486.114 367.293L487.897 373.992C489.051 378.366 490.136 382.763 490.771 387.238C492.21 397.261 491.486 408.814 484.622 416.848C481.879 420.062 478.1 422.356 473.884 422.959C471.532 423.284 469.209 422.882 466.876 422.587C464.507 422.29 462.222 422.768 459.852 422.538C456.082 422.166 454.434 426.699 455.843 429.549C456.606 431.079 457.501 432.399 458.519 433.518C457.701 434.226 456.919 434.991 456.167 435.794C453.94 436.512 451.941 438.051 450.447 440.089C449.237 441.734 448.61 443.522 448.505 445.406C448.372 445.875 448.257 446.353 448.152 446.84L446.11 450.171C445.66 450.901 445.213 451.623 444.764 452.331C439.566 460.555 433.797 467.518 426.628 474.079C419.726 480.391 412.236 486.044 405.752 492.815L404.988 493.619C398.943 500.018 392.572 507.764 394.938 517.069C395.547 519.46 398.871 521.181 401.04 519.566C408.017 514.362 411.532 506.118 417.451 499.806C423.545 493.303 430.294 487.459 436.405 480.974C442.184 474.854 446.744 467.92 450.18 460.288C451.552 461.808 453.549 462.889 456.32 463.31C461.08 464.027 465.517 461.225 467.591 457.084C468.924 457.677 470.285 458.212 471.657 458.633C478.872 460.852 483.412 452.789 480.69 446.831C479.234 443.637 477.416 440.863 475.159 438.53C482.214 437.554 489.392 433.891 494.028 429.319C505.659 417.833 507.259 400.57 504.641 385.22C503.251 377.081 500.853 368.847 497.739 361.205C497.198 359.875 496.615 358.536 495.979 357.216C496.331 357.207 496.693 357.054 496.921 356.757C499.026 353.87 501.585 351.507 503.147 348.274C504.585 345.31 506.183 342.306 507.316 339.217C509.648 332.895 510.791 325.76 511.552 319.075C513.123 305.39 512.514 291.79 510.429 278.189C506.879 255.026 498.304 232.858 485.67 213.406C486.358 213.043 487.018 212.606 487.632 212.087L487.935 211.821L488.428 211.374C492.033 208.096 491.722 201.953 488.428 198.633L487.388 197.586C486.07 196.271 484.935 195.229 482.807 193.798C482.493 193.586 482.172 193.387 481.847 193.201C482.961 191.134 483.348 188.716 482.572 186.049C479.869 176.756 466.56 177.085 458.125 181.138C448.792 172.77 438.445 165.507 427.229 159.625C400.516 145.623 370.312 135.858 340.819 129.89ZM478.899 374.633C473.911 372.997 467.286 376.431 462.803 378.497C457.119 381.117 452.283 384.991 447.6 389.084C445.267 391.13 444.849 394.478 445.429 397.338C445.487 397.624 445.543 397.921 445.611 398.217C446.229 401.268 449.619 403.669 452.617 403.583C458.89 403.411 461.879 397.969 465.431 393.359C465.849 394.105 466.373 394.793 467.021 395.31L467.458 395.654C468.932 396.782 470.557 397.683 472.503 397.596C473.884 397.528 475.206 397.175 476.425 396.534C479.472 394.917 480.813 390.959 479.986 387.735C479.472 385.708 478.292 384.12 476.749 383.02L477.324 382.625C478.554 381.766 479.676 380.859 480.55 379.52L480.747 379.204H480.672C481.624 377.559 481.004 375.321 478.899 374.633Z" fill="black"/>
<path fill-rule="evenodd" clip-rule="evenodd" d="M243.95 470.888C250.963 472.928 258.49 473.11 265.638 471.003C272.121 469.092 278.779 464.885 283.551 459.318C287.789 454.372 290.535 448.364 290.427 441.948C290.415 441.216 290.154 440.604 289.753 440.13C289.321 439.619 288.718 439.268 288.072 439.116C287.407 438.959 286.705 439.014 286.107 439.287C285.565 439.534 285.102 439.954 284.811 440.567C284.078 441.535 283.348 442.489 282.615 443.416C276.718 450.731 271.008 456.198 262.141 458.159C257.33 459.222 252.526 458.75 248.118 457.127C243.399 455.389 239.133 452.334 235.791 448.424C234.28 446.657 232.497 445.935 230.753 445.923C228.776 445.91 226.822 446.832 225.351 448.307C223.905 449.757 222.935 451.726 222.848 453.787C222.771 455.595 223.358 457.484 224.92 459.17C230.066 464.721 236.734 468.787 243.95 470.888ZM244.167 379.272C236.978 383.662 226.025 393.899 233.758 404.782C242.861 414.378 255.967 403.375 262.425 398.399C268.414 394.543 275.142 404.461 269.586 408.964C222.918 443.677 203.979 380.42 240.531 374.111C244.555 373.415 246.05 377.914 244.167 379.272ZM311.412 359.956C313.722 358.471 316.44 357.962 319.453 359.338C321.806 360.414 325.934 363.999 328.808 368.711C330.773 371.936 332.167 375.718 331.877 379.659C331.81 380.573 332.146 381.248 332.677 381.747C333.096 382.141 333.702 382.43 334.413 382.521C335.017 382.598 335.693 382.529 336.242 382.356C337.287 382.028 337.84 381.347 338.049 380.79C340.061 375.423 339.195 369.434 336.939 364.03C333.897 356.737 328.371 350.628 324.751 348.659C318.556 345.288 311.248 345.133 305.044 348.567C299.763 351.49 296.461 356.21 293.177 361.02C292.478 362.043 291.786 363.058 291.07 364.055C289.634 366.054 289.492 368.036 290.048 369.735C290.663 371.618 292.233 373.207 294.197 374.039C296.011 374.807 298.117 374.915 299.98 374.126C301.554 373.459 302.999 372.158 303.914 369.952C305.454 366.236 308.018 362.136 311.412 359.956ZM194.068 368.223C195.651 369.052 196.889 369.301 198.644 368.773C199.615 368.48 200.574 367.918 201.325 367.164C202.07 366.416 202.607 365.486 202.815 364.454C203.328 361.909 204.716 359.525 206.692 357.971C208.381 356.643 210.512 355.939 212.877 356.336C215.429 356.764 217.86 358.408 219.534 360.347C220.094 360.995 220.532 361.731 220.974 362.464C221.798 363.831 222.601 365.103 223.738 366.109C224.169 366.491 224.819 366.755 225.448 366.755C225.704 366.755 225.964 366.714 226.212 366.636C228.751 364.075 229.239 362.132 229.158 360.205C229.072 358.185 228.278 356.139 226.997 354.23C223.991 349.753 218.284 346.081 214.433 345.249C209.159 344.111 203.921 345.477 199.721 348.437C195.4 351.482 192.198 356.211 191.2 361.539C190.96 362.822 191.062 364.207 191.548 365.408C192.024 366.582 192.852 367.586 194.068 368.223ZM299.779 312.215C302.944 315.313 306.691 315.793 310.481 316.22C312.587 316.459 314.268 316.652 315.922 317.027C320.469 318.058 324.963 319.612 329.064 321.848C333.351 324.186 338.022 327.006 341.382 330.619C342.181 331.478 342.934 332.38 343.688 333.284C344.376 334.108 345.039 334.902 345.737 335.667C346.539 336.546 347.301 337.467 348.058 338.386C348.526 339.161 348.619 339.351 348.713 339.55C348.856 339.849 349.021 340.182 349.209 340.541C349.467 341.031 349.77 341.567 350.087 342.054C350.614 342.944 350.897 343.189 351.141 343.299C351.547 343.48 351.931 343.57 352.305 343.52C352.655 343.476 352.984 343.306 353.31 343.03C354.935 341.65 355.414 339.387 355.365 336.984C355.29 333.338 353.951 329.3 352.717 326.818C349.847 321.051 345.868 315.057 341.083 310.752C335.623 305.84 329.649 302.12 322.786 299.557C318.523 297.964 313.586 296.502 308.94 296.687C305.596 296.819 302.404 297.818 299.768 300.312C298.149 301.842 297.372 304.02 297.372 306.196C297.372 308.416 298.179 310.648 299.779 312.215ZM187.631 340.586C187.833 340.918 188.111 341.146 188.421 341.284C188.746 341.427 189.109 341.469 189.457 341.41C189.804 341.351 190.133 341.193 190.395 340.952C190.645 340.721 190.836 340.414 190.921 340.038C193.023 330.766 197.103 323.866 205.812 319.417C210.096 317.229 215.023 315.839 219.687 314.73C221.042 314.408 222.474 314.198 223.916 313.987C228.436 313.324 232.988 312.564 235.934 308.895C237.71 306.683 238.455 303.855 238.034 301.27C237.638 298.835 236.221 296.602 233.647 295.265C227.238 291.936 219.273 295.203 212.801 297.985C212.321 298.192 211.85 298.395 211.389 298.59C205.059 301.274 199.287 304.816 194.542 309.883C190.777 313.903 187.288 319.846 185.883 325.959C184.715 331.044 184.99 336.236 187.631 340.586Z" fill="black"/>
<path fill-rule="evenodd" clip-rule="evenodd" d="M224.004 486.326C232.869 478.39 242.807 462.437 255.543 475.06C258.693 478.626 259.969 486.621 264.785 488.19C271.182 490.275 277.523 483.475 279.703 478.253C288.623 449.239 251.75 441.28 230.744 445.968C220.482 450.202 212.924 467.245 212.467 476.139C212.171 482.117 217.207 490.906 224.004 486.326ZM157.12 441.604C157.207 441.219 157.328 440.871 157.473 440.553C161.394 439.065 164.497 440.584 166.414 443.42C166.351 444.125 166.141 444.839 166.009 445.539C167.489 448.67 168.823 452.544 170.828 455.25C171.224 455.28 171.634 455.239 172.029 455.124C205.264 458.611 189.038 423.674 222.748 414.997C248.806 410.678 295.902 415.625 308.195 442.874C317.889 486.398 367.184 456.071 383.37 433.436C400.639 412.836 411.805 387.663 422.571 363.237C424.847 358.068 431.948 361.764 431.176 366.723C441.127 386.78 440.796 410.872 443.261 432.845C447.453 476.68 451.538 538.156 410.997 564.923C358.176 624.906 226.275 646.073 165.352 590.959C144.263 545.406 146.863 489.832 157.12 441.604Z" fill="black"/>
<path fill-rule="evenodd" clip-rule="evenodd" d="M191.812 308.14C169.467 308.14 156.717 312.966 152.044 313.343L151.903 313.353C149.96 313.478 148.217 313.641 146.388 314.352C139.661 316.955 138.566 324.042 142.49 328.509C142.766 337.751 141.556 348.55 143.632 357.822C146.193 396.911 164.491 403.507 174.892 405.915C180.113 407.124 186.302 407.605 191.848 406.329C201.311 405.974 210.665 402.998 218.669 397.816C229.815 390.593 238.094 379.492 240.781 366.317C242.055 360.037 242.649 353.501 241.956 347.117L241.854 346.237C245.477 344.496 249.675 344.167 254.003 344.013C256.071 343.939 258.109 343.872 260.089 343.962C262.023 344.179 263.935 344.468 265.853 344.861C267.947 345.496 269.925 346.543 271.751 348.203L271.877 350.625C272.22 356.675 273.011 362.744 274.23 368.68C276.031 377.438 278.927 385.803 285.091 392.015C287.177 395.145 289.759 397.94 292.894 400.361C304.28 409.167 319.748 412.401 333.945 411.183C362.768 408.712 379.427 385.726 383.267 375.9L383.496 375.305C386.269 368.001 388.48 358.524 397.244 356.954L399.107 356.618C403.107 355.863 406.797 354.813 409.142 350.893C410.17 349.182 410.698 347.267 410.829 345.316C412.196 345.422 413.562 345.522 414.924 345.621C425.784 347.928 490.924 349.885 496.123 349.885C496.123 349.885 506.118 354.111 510.338 350.836C513.262 348.559 514.225 345.524 512.615 342.087C510.185 336.914 498.977 333.803 494.001 332.817C494.001 332.817 413.69 333.487 407.909 332.386C404.332 328.681 397.936 329.188 392.59 328.602C388.164 325.432 381.974 323.309 377.084 321.888C376.087 321.509 375.1 321.142 374.14 320.796C365.176 317.589 355.857 315.889 346.397 314.977C336.642 314.046 326.857 314.467 317.158 315.802C313.072 316.359 309.022 317.08 305.002 318.022C297.803 318.975 290.647 320.546 283.445 322.408L282.004 322.785C274.421 324.782 266.627 326.51 258.777 325.155C252.387 324.061 246.241 321.589 240.348 318.917L239.58 318.568C226.624 312.624 206.389 308.14 191.812 308.14ZM305.782 329.871C310.562 328.815 312.603 336.22 307.808 337.279C304.412 338.03 301.534 339.75 299.589 342.665L299.384 342.982C296.775 347.154 290.177 343.303 292.804 339.103C295.76 334.379 300.354 331.069 305.782 329.871ZM165.763 325.28C167.448 324.087 169.998 324.973 170.976 326.658C172.053 328.513 171.348 330.58 169.769 331.794L169.609 331.913C168.161 332.938 166.751 334.776 166.573 336.658L166.558 336.894C166.369 341.822 158.746 341.846 158.936 336.894C159.122 332.049 161.915 328.002 165.763 325.28Z" fill="black"/>
<path fill-rule="evenodd" clip-rule="evenodd" d="M1350.73 720.615C1342.43 688.289 1334.8 674.582 1320.06 663.347C1306.27 652.837 1286.14 644.011 1256.79 637.564C1226.19 632.192 1225.32 616.224 1217.66 590.56C1215.43 582.845 1204.34 580.792 1199.55 586.352C1198.87 585.622 1198.18 584.952 1197.45 584.346C1198.1 580.667 1192.76 570.12 1192.94 566.6C1194.8 529.863 1182.84 511.414 1152.98 504.556C1146.48 503.065 1102.38 502.186 1096.05 503.944C1068.37 511.631 1041.12 536.038 1045.3 565.438C1036.6 576.843 1028.1 583.804 1014.69 587.479C984.865 591.283 955.036 594.667 925.198 597.563C866.786 606.765 812.026 637.82 774.601 683.11C771.148 687.291 770.147 692.965 773.195 697.423C770.808 707.692 757.37 732.601 767.949 739.64C750.557 781.402 710.565 862.122 710.489 885.184C710.174 982.062 720.593 1108.16 815.763 1161.77C819.576 1165.54 820.123 1169.71 821.774 1175.3C825.955 1192.93 841.147 1205.54 857.784 1204.52C939.721 1206.35 1019.08 1196.3 1101.02 1195.82C1137.15 1195.6 1180.61 1201.02 1211.99 1204.63C1243.39 1208.24 1275.06 1205.05 1305.19 1195.82C1307.73 1199.83 1312.87 1202.18 1318.08 1201.02C1349.3 1194.79 1374.55 1175.46 1396.55 1154.33C1403.28 1142.05 1429.52 1107.06 1419.08 1094.87C1428.55 1054.72 1428.06 1011.57 1411.25 973.314C1413.63 966.31 1409.29 958.605 1411.25 951.365C1412.67 946.123 1416.3 943.963 1418.13 938.769C1420.7 931.471 1417.9 921.681 1415.01 914.232C1413.82 910.517 1417.19 906.517 1418.13 902.736C1422.57 884.864 1412.39 886.438 1405.06 874.494C1405.16 874.457 1407.07 865.929 1407.06 865.972C1408.18 859.883 1405.37 852.084 1402.92 847.002C1401.26 843.566 1397.71 841.417 1394.17 841.811C1397.73 829.683 1402.23 819.591 1407.06 807.906C1415.62 787.309 1426.44 767.587 1438.73 748.943C1443.76 741.309 1437 732.465 1428.87 731.945C1402.51 730.263 1376.46 726.453 1350.73 720.615Z" fill="white"/>
<path fill-rule="evenodd" clip-rule="evenodd" d="M1273.83 876.379C1263.3 872.228 1251.95 869.934 1240.55 869.044C1246.68 867.962 1252.84 866.92 1259.05 866.384C1263.38 866.012 1267.39 866.05 1270.65 869.351C1272.82 871.55 1273.84 874.381 1275.27 876.981C1274.8 876.771 1274.32 876.571 1273.83 876.379ZM1386.94 837.568C1369.68 838.45 1352.41 842.571 1336.8 850.04C1330.41 853.1 1324.62 857.519 1322.93 864.788C1322.07 868.499 1322.28 872.334 1322.73 876.084C1323.08 878.923 1323.16 882.548 1325.62 884.47C1326.04 884.795 1326.48 885.044 1326.95 885.226C1321.19 887.837 1315.71 890.975 1310.83 894.203C1306.38 897.16 1301.8 901.718 1299.74 906.846C1299.57 906.267 1299.4 905.718 1299.23 905.206C1295.73 894.8 1290.33 886.279 1281.83 880.549C1283.33 879.871 1284.37 878.263 1283.89 876.046C1281.87 866.777 1273.35 858.724 1263.72 859.298C1253.18 859.92 1241.87 863.773 1232.34 868.642C1228.86 868.565 1225.39 868.614 1221.97 868.766C1221.38 868.785 1221.41 869.59 1221.97 869.656C1224.75 870.011 1227.53 870.402 1230.31 870.861C1236.91 871.923 1243.5 873.271 1249.94 874.945C1257.67 876.954 1265.68 878.97 1272.89 882.481C1286.91 889.301 1295.58 907.13 1293.81 922.644C1293.51 925.184 1292.53 932.871 1289.01 932.084C1286.05 931.411 1284.87 925.184 1283.83 922.881C1281.05 916.759 1276.04 912.759 1270.04 910.058C1262.98 906.865 1255.43 904.713 1248.11 902.211C1243.98 900.789 1239.84 899.358 1235.69 897.946C1231.44 896.487 1227.4 894.468 1222.88 895.492C1220.15 896.108 1219.83 899.377 1221.37 901.254C1223.7 904.116 1227.17 904.96 1230.52 906.135C1234.96 907.68 1239.39 909.234 1243.82 910.779C1250.66 913.176 1257.83 915.186 1264.51 918.114L1264.3 918.598C1263.75 918.446 1263.11 918.986 1263.22 919.659C1264.21 925.848 1265.61 932.994 1264.06 939.192C1262.84 944.111 1258.55 949.551 1252.97 948.11C1253.85 947.305 1254.17 945.921 1253.59 944.642C1251.37 939.893 1222.44 921.166 1219.85 928.122C1219.77 928.369 1220.03 928.549 1220.25 928.511C1222.45 928.056 1226.13 931.819 1227.89 933.013C1230.43 934.738 1233.01 936.425 1235.53 938.187C1238.27 940.121 1240.96 942.149 1243.58 944.244C1245.63 945.893 1247.19 947.598 1249.55 948.432C1248.31 949.03 1247.33 950.129 1246.91 951.532C1245.84 955.199 1243.79 958.308 1240.22 959.919C1236.48 961.606 1232.26 960.545 1228.32 960.952C1222.95 961.502 1218.27 964.061 1214.35 967.729C1206.14 975.434 1202.02 989.015 1190.52 992.654C1183.66 994.834 1176.05 993.46 1169.09 992.474C1161.34 991.375 1153.78 990.503 1145.96 991.65C1138.48 992.759 1131.41 995.355 1124.57 998.53C1118.16 1001.51 1111.09 1004.87 1105.41 1009.31C1104.24 1005.69 1103.05 1002.09 1102.15 998.398C1100.05 989.65 1098.9 980.732 1098.62 971.738C1098.37 963.179 1098.85 954.583 1099.57 946.063C1099.94 941.808 1100.51 937.571 1100.87 933.316C1100.96 932.245 1101.16 931.098 1101.3 929.951C1111.45 923.933 1122.11 919.318 1132.86 914.579C1132.89 914.57 1132.91 914.551 1132.94 914.541C1133.27 914.39 1133.6 914.247 1133.93 914.096C1133.92 914.077 1133.91 914.058 1133.9 914.039C1135.12 913.29 1135.98 912.286 1136.49 911.158C1151.99 900.837 1164.93 886.748 1174.59 870.316C1178.62 863.429 1182.52 856.285 1187.82 850.251C1193.45 843.814 1200.14 839.988 1208.42 837.999C1218.11 835.666 1228.08 834.269 1238 833.475C1243.41 833.046 1249.47 832.376 1255.37 832.405C1259.49 832.432 1263.51 832.786 1267.2 833.81C1272.68 835.321 1275.88 839.502 1279.31 843.728C1282.6 847.784 1285.86 851.848 1288.93 856.076C1291.83 860.082 1294.58 864.224 1296.96 868.565C1298.38 871.167 1299.7 873.846 1300.82 876.609C1301.21 877.585 1301.72 878.694 1301.96 879.708C1302.2 880.73 1301.76 881.813 1302.9 881.813C1298.19 881.878 1298.24 889.443 1302.92 889.166C1321.26 888.095 1294.99 852.135 1291.15 847.123C1285.72 840.027 1280.11 830.768 1271.41 827.469C1271.29 827.421 1271.16 827.374 1271.04 827.335C1273.56 824.924 1275.57 822.038 1277.48 819.101C1279.45 816.078 1281.8 812.616 1282.44 809.03C1282.86 806.745 1280.03 805.443 1278.69 807.441C1276.74 810.359 1275.79 814.051 1274.34 817.255C1272.85 820.506 1271.04 823.577 1269.61 826.857C1266.18 825.795 1262.47 825.308 1258.68 825.145C1263.46 818.662 1271.6 806.151 1272.58 804.544C1277.09 797.103 1281.39 789.433 1285.49 781.753C1289.93 773.433 1293.73 764.767 1297.98 756.351C1300.38 751.58 1302.81 746.768 1305.49 742.139C1306.4 740.552 1307.39 738.964 1308.52 737.52C1308.74 737.234 1309.02 736.995 1309.27 736.726C1309.56 736.563 1309.88 736.381 1310.05 736.287C1311.58 735.398 1312.13 733.332 1313.22 732.02C1314.94 729.907 1316.98 729.659 1319.6 729.629C1325.15 729.572 1330.73 729.792 1336.28 729.944C1344.44 730.175 1352.59 730.5 1360.74 730.93C1363.2 731.064 1365.65 731.197 1368.13 731.351C1379.97 732.06 1391.81 732.986 1403.63 734.125C1414.08 735.129 1424.54 736.765 1434.99 737.549C1420.83 771.358 1405.13 804.555 1387.34 836.594C1387.16 836.918 1387.03 837.243 1386.94 837.568ZM1308.35 924.663C1306.06 925.725 1303.85 927.033 1301.78 928.52C1302.13 926.199 1302.21 923.753 1302.12 921.289C1303.82 923.128 1306 924.18 1308.35 924.663ZM1405.87 866.51C1405.71 866.529 1405.56 866.614 1405.49 866.777C1402.33 873.329 1403.65 880.644 1408.81 885.78C1411.52 888.458 1417.4 891.481 1417.22 895.88C1417.06 899.434 1413.2 902.42 1411.55 905.358C1410.02 908.097 1409.45 911.101 1410.68 914.058C1412.24 917.858 1416.63 919.365 1418.14 923.099C1420.05 927.838 1416.95 933.543 1414.78 937.666C1412.76 941.486 1410.15 945.296 1408.42 949.333C1396.81 955.37 1386.42 964.629 1377.5 974.031C1367.72 984.314 1359.33 996.407 1343.81 996.104C1342.26 996.076 1341.08 996.9 1340.37 998.037C1336.05 998.237 1331.72 998.322 1327.4 998.341C1319.8 998.379 1312.21 998.303 1304.62 998.066C1304.08 996.218 1304.48 993.716 1304.45 992.152C1304.36 987.129 1304.31 982.115 1304.09 977.102C1304.03 975.699 1303.98 974.296 1303.92 972.903C1306.66 977.86 1311.99 980.116 1318.06 979.774C1327.82 979.206 1337.65 977.595 1347.32 976.154C1352.42 975.396 1357.5 974.533 1362.57 973.614C1366.74 972.875 1372.63 973.064 1375.53 969.7C1376.22 968.923 1376.26 967.482 1375.19 966.961C1372.3 965.539 1370.49 966.326 1367.32 966.942C1363.45 967.7 1359.58 968.411 1355.69 969.084C1348.24 970.382 1340.76 971.586 1333.27 972.647C1329 973.254 1324.73 973.842 1320.45 974.315C1316.73 974.713 1312.52 975.263 1309.51 972.439C1303.45 966.743 1306.85 957.19 1310.68 951.427C1310.75 951.314 1310.75 951.209 1310.73 951.115C1314.35 950.262 1317.95 949.267 1321.55 948.565C1328.48 947.229 1335.44 946.101 1342.42 945.097C1356.76 943.04 1371.18 941.685 1385.6 940.32C1389.17 939.969 1389.21 934.33 1385.6 934.662C1364.89 936.567 1344.08 938.377 1323.65 942.376C1318.54 943.372 1313.45 944.499 1308.39 945.779C1306.01 946.366 1303.45 947.295 1300.94 947.324C1300.79 947.324 1300.64 947.324 1300.49 947.314C1295.58 947.163 1294.87 942.945 1297.56 939.438C1297.9 939.002 1298.24 938.576 1298.59 938.159C1303.36 932.463 1309.28 928.653 1315.4 924.72C1322.24 923.782 1329.06 921.697 1335.77 920.161C1352.31 916.38 1368.85 912.589 1385.41 908.807C1388.65 908.068 1387.27 903.055 1384.03 903.794C1371.47 906.646 1358.9 909.509 1346.33 912.371L1327.94 916.56C1324.27 917.394 1319.68 919.062 1315.36 919.668C1313.23 919.962 1311.16 920 1309.29 919.564C1303.27 918.124 1302.96 910.561 1305.56 906.068C1308.47 901.017 1313.97 897.861 1318.86 894.999C1327.32 890.036 1336.33 886.469 1345.12 882.357C1346.69 882.013 1348.24 881.668 1349.81 881.324C1358.89 879.315 1369.27 878.33 1377.81 874.649C1380.38 873.558 1378.97 869.503 1376.44 869.56C1369.81 869.704 1362.87 872.076 1356.39 873.481C1349.37 875.012 1342.35 876.532 1335.33 878.053C1334.63 878.206 1330.46 879.545 1329.82 879.248C1329.43 879.057 1329.29 877.662 1329.15 876.742C1328.72 873.72 1328.41 870.546 1328.87 867.513C1329.9 860.713 1335.54 857.519 1341.26 854.908C1353.97 849.102 1367.92 845.47 1381.8 844.015C1385 843.679 1388.2 843.47 1391.42 843.364C1395.19 843.249 1398.3 842.58 1400.22 846.32C1403.23 852.211 1404.89 859.786 1405.87 866.51ZM1388.22 1080.11C1385.44 1070.48 1386.2 1060.21 1384.3 1050.38C1383.32 1045.32 1381.98 1040.29 1380.52 1035.34C1379.35 1031.35 1377.38 1027.1 1377.16 1022.93C1377.14 1022.65 1377.47 1022.49 1377.7 1022.62C1381.6 1024.87 1384.6 1029.73 1386.83 1033.55C1389.5 1038.12 1391.54 1042.89 1393.19 1047.93C1396.46 1057.93 1399.15 1070.02 1394.93 1080.11C1393.67 1083.12 1389.26 1083.72 1388.22 1080.11ZM1302.57 952.574C1304.91 952.347 1307.25 951.892 1309.59 951.371C1306.98 953.939 1304.56 957.019 1303.21 960.45C1303.01 957.815 1302.74 955.199 1302.39 952.584C1302.45 952.584 1302.52 952.584 1302.57 952.574ZM1280.07 1153.01C1275.93 1150.11 1272.92 1146.07 1269.42 1142.49C1265.98 1138.99 1271.37 1133.57 1274.81 1137.08C1277.8 1140.13 1280.39 1143.93 1283.91 1146.41C1285.61 1147.59 1286.39 1149.73 1285.28 1151.64C1284.29 1153.32 1281.76 1154.19 1280.07 1153.01ZM1257.03 1041.74C1264.57 1038.46 1271.99 1034.9 1279.88 1032.54C1284.6 1031.12 1286.59 1038.51 1281.91 1039.91C1274.64 1042.09 1267.82 1045.33 1260.88 1048.34C1256.42 1050.28 1252.55 1043.68 1257.03 1041.74ZM1177.43 1039.44C1175.58 1034.88 1182.96 1032.9 1184.77 1037.41C1186.86 1042.59 1189.26 1047.65 1191.34 1052.84C1193.18 1057.4 1185.82 1059.38 1184 1054.86C1181.91 1049.68 1179.51 1044.63 1177.43 1039.44ZM1098.85 1130.7C1097.61 1132.34 1095.57 1133.24 1093.64 1132.08C1092.02 1131.1 1091.03 1128.5 1092.27 1126.85C1095.89 1121.98 1099.57 1117.18 1103.83 1112.85C1107.28 1109.33 1112.66 1114.74 1109.22 1118.26C1105.42 1122.13 1102.09 1126.36 1098.85 1130.7ZM1087.61 618.655C1091.1 621.053 1094.17 623.967 1097.15 626.965C1100.62 630.451 1095.23 635.861 1091.77 632.375C1089.25 629.848 1086.71 627.283 1083.77 625.261C1082.06 624.093 1081.3 621.919 1082.4 620.027C1083.38 618.332 1085.91 617.49 1087.61 618.655ZM1201.93 741.778C1199.95 745.754 1198.18 749.652 1198.06 754.171C1197.94 759.093 1190.33 759.096 1190.45 754.171C1190.59 748.257 1192.76 743.128 1195.36 737.917C1197.54 733.504 1204.11 737.384 1201.93 741.778ZM1243.88 642.893C1247.97 640.151 1251.78 646.782 1247.72 649.5C1244.43 651.703 1241.14 653.907 1237.85 656.11C1233.75 658.852 1229.95 652.222 1234.01 649.504C1237.29 647.3 1240.58 645.097 1243.88 642.893ZM1061.94 815.784C1061.24 820.647 1053.9 818.567 1054.6 813.752C1055.67 806.309 1056.98 798.964 1058.99 791.715C1060.3 786.971 1067.64 788.998 1066.33 793.749C1064.32 800.999 1063.01 808.343 1061.94 815.784ZM1035.24 903.424C1030.34 903.32 1030.34 895.672 1035.24 895.776C1039.68 895.871 1044.04 897.046 1048.32 898.117C1053.08 899.311 1051.04 906.694 1046.3 905.5C1042.67 904.59 1038.99 903.509 1035.24 903.424ZM1025.39 1079.98C1023.7 1080.8 1021.97 1081.54 1020.27 1082.33C1016.86 1083.89 1013.46 1085.46 1010.05 1087.03C1002.96 1090.3 995.859 1093.59 988.772 1096.89C974.589 1103.48 960.302 1109.84 946.081 1116.36C931.578 1123.03 917.121 1129.76 902.674 1136.54C895.87 1139.73 889.019 1142.81 882.168 1145.91C876.318 1148.58 869.089 1153.22 862.663 1153.66C862.333 1153.68 862.229 1153.26 862.418 1153.04C864.843 1150.27 868.712 1148.66 871.901 1146.85C875.157 1145.01 878.479 1143.28 881.781 1141.53C888.67 1137.86 895.559 1134.22 902.513 1130.68C916.423 1123.61 930.36 1116.6 944.298 1109.59C958.509 1102.43 972.702 1095.24 987.045 1088.34C993.792 1085.09 1000.56 1081.86 1007.31 1078.62C1010.98 1076.88 1014.65 1075.13 1018.31 1073.39C1019.89 1072.63 1021.46 1071.82 1023.07 1071.15C1025.23 1070.26 1026.87 1070.44 1029.08 1069.89C1032.7 1069 1034.27 1073.61 1031.49 1075.63C1029.2 1077.28 1028 1078.7 1025.39 1079.98ZM974.542 1158.43C973.759 1156.53 975.401 1154.21 977.203 1153.73C979.364 1153.15 981.1 1154.47 981.883 1156.4C983.978 1161.5 986.951 1166.19 990.773 1170.14C994.198 1173.67 988.819 1179.08 985.394 1175.55C980.591 1170.59 977.146 1164.8 974.542 1158.43ZM937.145 1035.62C933.673 1032.14 939.051 1026.73 942.524 1030.21L952.395 1040.13C955.867 1043.61 950.479 1049.03 947.006 1045.54L937.145 1035.62ZM835.883 1019.46C828.786 1021.55 820.511 1023.47 815.67 1029.55C815.434 1029.85 815.037 1029.46 815.179 1029.17C821.369 1016.27 839.138 1011.74 851.434 1007.23C860.134 1004.03 869.052 1001.38 878.054 999.014C877.158 988.693 879.639 977.642 880.498 967.378C881.423 956.422 882.168 945.428 882.555 934.434C882.942 923.223 883.037 911.935 882.678 900.723C882.31 889.543 880.866 878.504 880.234 867.366C880.168 866.289 881.659 866.238 881.989 867.127C885.726 877.464 887.321 888.912 888.538 899.813C889.793 911.035 890.208 922.237 890.048 933.524C889.878 945.134 889.208 956.716 888.283 968.288C887.849 973.775 887.339 979.253 886.858 984.741C886.5 988.92 886.33 993.071 885.481 997.118C890.907 995.782 896.342 994.521 901.768 993.289C919.065 989.366 936.428 985.726 953.65 981.49C962.105 979.405 970.437 976.912 978.845 974.704C986.772 972.619 995.142 970.088 1003.28 969.16C1006.17 968.828 1006.54 972.818 1004.63 974.173C998.01 978.836 989.225 982.087 981.591 984.693C973.928 987.318 965.955 989.204 958.104 991.138C941.722 995.194 925.18 998.502 908.666 1001.95C892.171 1005.39 875.648 1008.81 859.342 1013.06C851.49 1015.11 843.668 1017.16 835.883 1019.46ZM796.995 814.765C792.758 817.266 788.927 810.65 793.154 808.158C798.684 804.899 804.572 802.45 810.517 800.06C815.075 798.227 817.028 805.63 812.537 807.439C807.196 809.585 801.968 811.836 796.995 814.765ZM781.642 1099.02C777.395 1101.5 773.564 1094.89 777.801 1092.41C783.756 1088.95 790.276 1086.63 796.448 1083.6C800.836 1081.44 804.686 1088.04 800.288 1090.21C794.117 1093.24 787.596 1095.55 781.642 1099.02ZM774.734 937.666C778.849 941.59 784.331 943.438 789.512 945.495C794.022 947.286 792.041 954.688 787.483 952.877C781.038 950.309 774.47 947.959 769.356 943.078C765.789 939.675 771.186 934.273 774.734 937.666ZM820.218 718.529C824.729 720.31 822.756 727.707 818.189 725.908C813.131 723.913 807.894 722.394 802.836 720.399C798.316 718.618 800.298 711.223 804.865 713.021C809.923 715.016 815.151 716.534 820.218 718.529ZM900.437 631.489C905.24 630.677 907.288 638.05 902.466 638.868C896.483 639.882 890.586 641.07 884.914 643.275C880.338 645.056 878.365 637.655 882.895 635.897C888.566 633.692 894.455 632.504 900.437 631.489ZM926.944 843.411C922.547 841.236 926.406 834.641 930.785 836.805C935.409 839.087 940.193 840.849 945.232 841.928C950.035 842.955 947.988 850.33 943.203 849.306C937.532 848.092 932.134 845.977 926.944 843.411ZM951.979 724.038C956.726 722.734 958.726 730.116 954.008 731.416C945.704 733.702 937.145 734.892 928.784 736.925C924.01 738.085 922 730.705 926.756 729.548C935.126 727.512 943.675 726.326 951.979 724.038ZM1058.19 686.578C1063.01 687.474 1060.95 694.847 1056.16 693.957C1051.06 693.009 1045.89 692.994 1040.72 692.991C1035.81 692.989 1035.82 685.337 1040.72 685.34C1046.6 685.343 1052.39 685.502 1058.19 686.578ZM1404.56 726.551C1392.12 725.355 1379.66 724.398 1367.18 723.682C1366.6 723.651 1366.03 723.614 1365.45 723.585C1365.38 723.451 1365.3 723.326 1365.21 723.193C1361.13 717.187 1358.13 711.181 1355.54 704.389C1353.06 697.925 1350.64 691.259 1346.82 685.425C1342.45 678.779 1336.56 673.577 1330.1 669.07C1326.18 671.716 1322.55 674.815 1319.23 678.099C1315.73 681.555 1310.34 676.146 1313.84 672.689C1316.79 669.77 1319.94 667.074 1323.29 664.638C1319.44 662.287 1315.5 660.078 1311.67 657.88C1297.31 649.647 1282.6 642.033 1267.59 635.071C1260.61 631.828 1253.55 628.949 1246.43 626.032C1242.6 624.464 1238.83 622.446 1235 620.63C1235.28 617.913 1234.47 614.871 1232.39 613.083C1230.86 611.772 1229.68 611.284 1227.84 610.358C1227.43 610.213 1227.18 610.127 1227.07 610.079C1227.16 610.098 1227.4 610.175 1227.82 610.309C1228.79 610.759 1228.86 610.624 1228.04 609.916C1228 608.369 1224.96 605.097 1224.27 603.5C1221.84 598.019 1221.1 592.223 1217.52 587.231C1212.6 580.354 1204.34 577.754 1196.64 580.086C1195.84 571.813 1195.63 563.178 1192.52 555.795C1192.44 555.595 1192.17 555.507 1192.04 555.727C1188.81 561.266 1188.52 567.434 1188.28 573.823C1188.04 579.819 1188.27 585.949 1189.05 591.907C1188.55 592.29 1188.05 592.654 1187.53 593.008C1185.07 594.633 1182.43 595.886 1179.64 596.815C1174.35 598.574 1168.8 599.339 1163.25 599.607C1148.93 600.295 1134.16 598.842 1120.07 596.374C1105.82 593.878 1083.98 590.129 1071.29 582.965C1062.92 578.242 1055.2 572.474 1047.38 566.888C1050.22 557.707 1050.94 547.837 1048.09 540.08C1047.74 539.153 1046.3 538.981 1046.02 540.08C1044.23 547.483 1043.71 554.924 1041.32 562.24C1041.29 562.345 1041.25 562.461 1041.21 562.565C1040.47 562.059 1039.73 561.562 1038.98 561.064C1037.28 559.926 1034.94 560.778 1033.91 562.403C1017.47 588.426 991.433 589.918 964.096 594.568C934.173 599.654 904.099 605.145 875.336 615.101C847.82 624.627 821.53 638.495 800.703 659.211C795.985 663.901 791.578 668.898 787.417 674.115C791.446 674.625 795.438 675.419 799.382 676.663C804.044 678.136 802.043 685.52 797.353 684.04C792.286 682.442 787.162 681.65 781.991 681.257C767.836 700.707 756.805 722.763 747.255 744.472C728.956 786.096 717.043 830.423 711.56 875.553C714.57 873.741 717.634 872.014 720.775 870.409C725.139 868.179 728.987 874.781 724.619 877.015C719.768 879.494 715.055 882.227 710.49 885.19C708.496 904.941 707.723 924.824 708.191 944.679C709.305 992 715.664 1040.7 730.048 1085.86C737.102 1108.02 746.453 1130 760.381 1148.73C766.676 1157.21 773.838 1164.86 782.274 1171.24C786.36 1174.34 790.682 1177.1 795.24 1179.44C801.109 1182.46 808.762 1183.45 813.829 1187.73C815.5 1189.13 816.783 1190.99 817.755 1193.08C817.189 1197.06 817.123 1201.04 818.208 1205.02C818.548 1206.27 819.482 1207.28 820.633 1207.77C820.652 1208.11 820.652 1208.45 820.652 1208.78C820.652 1208.93 820.878 1208.97 820.916 1208.82C820.963 1208.52 821.011 1208.22 821.058 1207.92C821.426 1208.04 821.813 1208.1 822.218 1208.1C836.675 1208.15 851.151 1207.8 865.636 1207.31C864.513 1203.86 863.305 1200.45 862.135 1197C860.559 1192.32 867.91 1190.33 869.476 1194.96C870.845 1198.99 872.269 1202.99 873.534 1207.02C889.048 1206.45 904.561 1205.75 920.037 1205.23C952.97 1204.13 985.885 1203.77 1018.82 1203.07C1069.97 1201.98 1121.5 1199.76 1172.72 1201.94C1174.49 1198.16 1176.47 1194.47 1178.36 1190.74C1180.58 1186.34 1187.15 1190.22 1184.93 1194.61C1183.63 1197.2 1182.27 1199.76 1180.98 1202.33C1191.36 1202.87 1201.72 1203.59 1212.07 1204.57C1229.71 1206.23 1247.2 1209.19 1264.83 1211.02C1282.75 1212.9 1300.29 1212.56 1318.07 1209.59C1321.27 1209.05 1323.15 1207.11 1323.94 1204.7C1323.96 1204.69 1323.98 1204.67 1324 1204.65C1324.91 1203.57 1325.77 1202.68 1326.65 1201.91C1327.71 1201.22 1328.85 1200.64 1330.19 1200.12C1332.7 1199.17 1335.31 1198.58 1337.96 1198.19C1340.87 1197.75 1343.82 1197.71 1346.73 1197.35C1349.19 1197.04 1351.59 1196.56 1353.98 1195.99C1358.29 1194.96 1362.39 1193.6 1366.47 1191.82C1370.01 1190.26 1373.22 1188.02 1376.25 1185.59C1382.52 1180.98 1387.94 1175.11 1392.68 1169.01C1395.45 1165.44 1398.04 1161.74 1400.4 1157.88C1404.51 1151.21 1408.02 1144.27 1411.56 1137.29C1412.85 1135.21 1414.02 1133.09 1415.09 1130.93C1408.17 1128.87 1401.18 1127.21 1393.84 1127.09C1388.94 1127.01 1388.94 1119.36 1393.84 1119.43C1402.26 1119.58 1410.22 1121.55 1418.13 1123.9C1418.51 1122.87 1418.89 1121.83 1419.23 1120.79C1420.17 1118.6 1420.94 1116.35 1421.59 1114.07C1421.97 1113.04 1422.36 1112 1422.74 1110.97C1423.59 1107.4 1424.45 1103.82 1425.31 1100.22C1427.04 1094.49 1428.4 1088.66 1429.4 1082.76C1430.24 1078.88 1430.89 1074.97 1431.32 1071C1432.65 1061.41 1433.74 1051.84 1433.81 1042.15C1433.7 1036.17 1433.32 1030.19 1432.67 1024.26C1432.4 1020.22 1431.94 1016.21 1431.3 1012.22C1430.48 1006.28 1429.67 1000.42 1428.31 994.559C1427.29 990.607 1426.27 986.646 1425.26 982.684C1422.72 974.429 1419.72 966.335 1416.26 958.431C1416.07 957.929 1415.11 956.839 1414.53 956.83C1414.09 956.82 1413.48 957.228 1413.69 957.758C1413.71 957.806 1413.72 957.863 1413.74 957.91C1413.54 957.464 1413.35 957 1413.15 956.555C1412.98 956.138 1412.31 955.294 1411.8 955.304C1411.77 955.304 1411.74 955.304 1411.7 955.313C1411.84 955.218 1411.96 955.095 1412.08 954.943C1415.5 950.887 1417.72 945.532 1420.17 940.832C1422.2 936.946 1424.1 932.852 1424.66 928.464C1425.14 924.616 1424.49 920.815 1422.08 917.697C1419.34 914.143 1414.18 912.485 1417.05 907.357C1420.3 901.519 1425.09 896.468 1420.32 889.835C1417.9 886.46 1414.05 884.605 1411.19 881.668C1407.9 878.273 1406.34 873.729 1406.43 869.091C1406.63 869.206 1406.89 869.15 1406.99 868.862C1409.75 860.484 1407.75 851.284 1404.93 843.125C1403.38 838.698 1400.12 837.482 1396.32 837.263C1412.77 804.985 1428.16 772.189 1441.88 738.638C1442.34 737.539 1442.79 736.439 1443.23 735.339C1443.9 733.694 1442.49 731.504 1440.86 731.14C1429 728.529 1416.64 727.697 1404.56 726.551Z" fill="black"/>
<path fill-rule="evenodd" clip-rule="evenodd" d="M1267.34 326.76C1265.07 297.356 1268.57 266.536 1257.29 238.589C1237.61 192.218 1182.45 176.757 1139.67 159.103C1122.53 154.016 1064.88 153.305 1044.81 146.573C999.407 131.335 988.555 113.18 952.479 142.192C946.383 147.148 942.571 152.535 939.797 159.894L939.91 159.926C939.117 162.994 939.966 166.056 941.759 168.394C926.114 184.46 919.565 208.546 927.595 229.932C953.791 285.583 952.555 315.675 944.118 375.503C933.097 431.357 958.283 451.76 999.992 482.15C998.293 485.459 997.935 489.855 1000.15 492.774C1048.38 560.869 1139.33 593.381 1217.25 558.819C1248.88 544.676 1263 510.834 1271.05 480.3C1280.44 446.109 1283.33 410.082 1275.69 375.254C1272.6 359.146 1268.59 343.155 1267.34 326.76Z" fill="white"/>
<path fill-rule="evenodd" clip-rule="evenodd" d="M989.114 0.989455C994.965 0.106252 999.381 3.75554 1001.49 8.89923L1001.6 9.17625C1002.28 10.9265 1003.02 12.6288 1003.84 14.3025C1018.49 7.08174 1039.39 8.93714 1048.67 23.5604C1055.28 34.0044 1051.24 46.3993 1048.75 57.4746L1047.11 64.7713C1050.28 66.7957 1052.66 70.4189 1052.56 74.171L1052.54 74.4601L1051.88 84.636C1053.99 82.4846 1055.91 80.1408 1057.64 77.6445C1058.83 75.4542 1060.11 73.3029 1061.49 71.2178C1069.62 58.9474 1087.85 69.6114 1081.15 82.7519C1079.86 85.2861 1078.41 87.6868 1076.86 90.0012C1075.11 93.4159 1073.67 96.9254 1072.57 100.532C1075.74 101.918 1078.18 104.998 1078.43 109.646C1079.03 120.501 1073.35 129.558 1064.33 135.248C1061.68 136.922 1058.93 137.248 1056.45 136.626C1056.01 137.219 1055.58 137.812 1055.16 138.415C1058.76 141.351 1062 144.698 1064.79 148.409C1073.18 147.146 1081.63 146.553 1090.07 146.534C1100.39 141.456 1112.75 141.561 1123.84 143.464C1130.98 144.689 1137.83 147.07 1144.86 148.782C1152.26 150.58 1159.78 150.646 1167.27 151.871C1176.72 153.411 1185.01 157.791 1190.21 164.782C1195.93 164.954 1201.94 167.308 1206.94 170.502C1218.55 177.942 1230.09 185.488 1241.68 192.977C1246.13 195.852 1247.79 200.442 1246.97 205.561L1246.92 205.888L1246.53 208.011L1247.45 209.318C1250.99 214.349 1254.84 219.617 1257.14 225.169C1261.38 231.319 1265.22 237.765 1268.62 244.412C1273.2 253.345 1276.98 262.814 1279.54 272.53C1280.18 274.988 1280.81 277.465 1281.24 279.971C1281.83 283.51 1280.91 286.254 1280.41 289.65C1279.78 293.954 1279.55 298.315 1278.88 302.628C1278.44 305.488 1276.02 306.893 1273.48 306.97C1274.43 314.249 1275.12 321.575 1275.78 328.843C1276.7 339.229 1277.33 349.645 1277.88 360.06C1280.67 364.144 1286.39 367.376 1290.52 368.496C1296.25 370.035 1302.24 368.361 1307.65 366.401C1311.05 365.167 1313.84 369.461 1312.18 372.33C1306.97 381.339 1295.84 381.302 1287.4 377.313C1283.83 375.63 1280.7 373.192 1278.38 370.016C1278.52 373.038 1278.67 376.061 1278.82 379.092L1278.96 381.838C1280.68 413.909 1284.39 447.082 1278.39 478.835C1268 533.838 1222.69 575.718 1167.35 578.97C1138.31 580.677 1114.13 572.059 1102.1 567.251C1090.07 562.444 1094.75 552.641 1103.1 555.443C1117.48 560.271 1143.9 567.461 1167.55 564.356C1223.27 557.037 1270.53 529.054 1265.67 408.53C1264.98 391.439 1262.87 374.338 1262.4 357.248C1261.97 340.54 1262.13 323.822 1261.39 307.124L1261.15 301.426C1260.87 294.769 1260.56 288.081 1260.06 281.415C1259.47 278.832 1258.97 276.212 1258.23 273.678C1256.25 266.782 1253.65 260.078 1250.42 253.679C1249.7 254.225 1248.91 254.617 1248.04 254.77C1241.46 255.956 1235.29 255.621 1229.13 252.867C1226.26 251.594 1223.72 249.902 1221.36 247.807C1220.24 246.822 1219.5 245.866 1218.9 244.871C1215.92 244.919 1212.94 244.02 1211.08 241.869C1208.95 239.416 1208.6 236.882 1209.43 234.537L1209.51 234.303L1209.3 234.227C1206.79 240.759 1201.78 246.507 1196.29 250.39C1187.61 256.549 1176.75 258.328 1166.33 258.49C1154.84 258.663 1142.71 256.884 1131.36 255.067C1128.36 254.588 1125.39 254.043 1122.46 253.307C1122.35 253.422 1122.23 253.555 1122.1 253.67C1112.36 263.034 1098.67 265.444 1086.31 260.097C1079.18 257.008 1073.18 252.035 1067.89 246.334C1067.81 249.319 1067.66 252.302 1067.41 255.257L1067.3 256.432C1066.78 261.935 1065.76 267.774 1061.62 271.746C1054.92 278.182 1045.21 275.601 1037.49 271.412C1037.5 271.613 1037.5 271.823 1037.5 272.033C1039.59 279.148 1041.68 286.274 1043.78 293.399L1044.23 294.917C1045.75 299.976 1047.42 305.041 1047.88 310.336C1048.76 320.455 1042.05 330.449 1030.86 327.055C1024.99 325.28 1020.28 320.32 1015.77 316.346L1012.93 313.875C1020.28 338.044 1025.39 363.073 1025.86 388.293C1025.9 389.661 1024.72 390.694 1023.43 390.741C1020.4 390.865 1017.14 390.263 1014.1 389.048C1013.92 389.039 1013.75 389.029 1013.57 389C1008.37 388.245 1003.55 386.361 999.296 383.578C1000.28 386.706 1000.71 390.062 1000.46 393.572C1000.39 394.423 999.07 394.72 998.881 393.782C996.418 381.646 982.282 372.474 970.1 374.798C957.021 377.294 947.386 388.599 945.027 401.462C942.489 415.282 947.339 431.264 956.313 441.928C960.446 446.844 965.882 450.946 972.336 451.98C975.29 452.448 978.357 452.286 981.216 451.444C982.433 451.08 983.575 450.573 984.736 450.095C986.434 449.406 988.416 449.301 990.011 448.574C993.644 446.939 997.286 450.296 995.446 454.035C993.851 457.297 992.417 459.497 989.756 461.18C991.907 463.82 993.861 467.492 994.587 468.477C998.277 473.489 1002.02 478.223 1006.23 482.804C1010.52 487.453 1015.2 491.699 1020.13 495.63L1022.21 497.278C1026.97 501.07 1031.12 504.584 1034.47 510.023C1037.12 514.317 1033.69 520.142 1028.73 520.075C1013.21 519.855 1001.93 506.159 993.898 494.195C992.757 492.483 991.681 490.675 990.681 488.82C990.322 489.403 989.916 489.948 989.473 490.446L990.36 492.837C992.983 499.876 981.669 504.476 978.385 497.905C975.988 493.143 973.223 488.61 970.137 484.325C968.316 484.066 966.542 482.957 965.551 481.523C963.041 477.879 960.239 474.197 957.87 470.314C956.549 469.061 955.2 467.855 953.822 466.679C953.425 467.034 953.01 467.387 952.623 467.76C950.887 471.729 948.745 475.354 946.093 478.768L945.518 479.496C940.431 485.939 933.807 492.533 925.607 494.109C923.097 494.587 920.69 491.46 922.908 489.461C928.655 484.277 935.44 480.748 940.733 474.961C943.338 472.111 945.735 468.972 947.792 465.681L948.264 464.919C948.603 464.355 948.953 463.791 949.321 463.217C946.933 461.582 944.536 459.937 942.149 458.292C935.572 463.937 927.003 466.52 919.728 471.197L919.011 471.672C912.433 476.09 905.498 466.316 910.773 460.95C916.586 455.058 921.436 448.031 926.588 441.482C924.172 437 923.021 431.701 922.596 426.345C922.427 424.829 922.295 423.312 922.162 421.796C918.463 421.853 914.755 420.581 911.612 418.391L910.424 417.539C906.602 418.764 902.601 419.356 898.76 419.251C889.739 418.984 886.04 408.626 891.683 402.074C897.448 395.379 907.526 393.916 915.51 397.168C915.774 397.034 916.038 396.891 916.293 396.747C915.916 394.988 916 393.391 916.435 391.989L916.302 391.134C914.547 388.427 913.396 385.335 912.952 382.069C912.613 379.483 912.679 376.918 913.273 374.364C913.471 373.514 913.887 372.633 914.198 371.746C913.556 370.099 913.169 368.397 913.056 366.685C912.867 366.467 912.688 366.245 912.518 366.004C908.555 360.413 909.357 353.678 913.132 349.154C913.141 348.866 913.169 348.578 913.207 348.293C912.99 347.793 912.792 347.289 912.603 346.779C908.914 343.045 906.215 338.551 906.715 332.982C907.017 329.704 908.357 326.755 910.386 324.551C910.018 323.482 909.989 322.243 910.424 321.209C907.187 312.558 907.593 302.137 909.923 292.462C909.414 290.989 909.15 289.391 909.206 287.699C909.47 280.517 915.661 273.917 922.983 274.003C923.87 274.01 924.691 274.127 925.494 274.296L925.503 274.125C925.777 271.969 926.371 269.977 927.23 268.189C926.805 268.035 926.418 267.814 926.069 267.52C921.379 270.038 916.406 271.962 911.197 273.273C907.366 274.238 903.441 269.862 905.819 266.248C906.923 264.572 908.149 263.067 909.461 261.692C907.593 261.702 905.696 261.829 903.78 262.076C900.326 262.527 896.486 260.164 894.249 256.97C891.466 259.686 888.682 262.392 885.889 265.099C878.83 271.976 868.158 266.916 867.044 257.849C864.94 257.286 862.977 256.329 861.25 254.962C850.115 259.82 838.131 262.488 825.882 262.995C817.078 263.359 811.945 253.067 816.049 245.799C818.814 240.921 822.24 236.541 826.194 232.734C820.06 234.618 813.728 235.976 807.264 236.847C803.773 237.316 798.837 234.408 797.431 231.186C792.081 218.79 792.543 205.869 798.696 193.809C798.941 193.331 799.205 192.872 799.46 192.412C800.102 190.815 800.791 189.238 801.546 187.688C793.968 179.75 793.308 167.948 797.394 158.068C795.761 155.4 795.129 152.186 796.242 149.279C799.413 140.91 803.98 133.183 809.755 126.545C809.199 125.474 808.717 124.336 808.302 123.112C805.056 113.213 808.821 101.268 816.408 94.3721C821.173 90.0305 826.656 87.429 832.516 85.7647C834.979 81.3843 838.15 77.4341 841.839 74.1066C841.981 73.7909 842.132 73.4754 842.292 73.1598C848.039 62.2759 858.513 56.4416 869.733 55.0929C870.177 50.8366 873.027 46.7727 877.179 45.4525C878.321 41.7705 880.029 38.2508 882.369 35.0564C886.049 30.0258 892.173 27.6538 897.939 30.9534C901.1 32.761 904.129 34.8364 906.97 37.1318C908.244 36.5315 909.687 36.143 911.31 36.0191L911.726 35.9937L921.115 35.5155C925.041 33.7653 928.966 31.9289 932.901 30.1405C935.26 28.1798 937.893 26.5444 940.771 25.3298C944.027 23.9622 947.358 23.1875 950.698 22.9292C953.416 22.0398 956.143 21.2555 958.927 20.6435C965.457 19.2089 972.289 18.4055 979.064 18.4724C979.206 16.71 979.272 14.9263 979.262 13.1217L979.244 12.2176C979.093 6.4314 983.698 1.812 989.114 0.989455ZM982.527 463.934C981.603 464.135 980.659 464.297 979.715 464.413C979.998 465.12 980.282 465.828 980.565 466.536C981.32 466.966 982.093 467.378 982.867 467.759C982.641 466.459 982.499 465.149 982.527 463.934ZM933.628 449.333L932.986 450.504C932.892 450.695 932.788 450.885 932.684 451.071C934.034 450.965 935.383 450.994 936.713 451.147V451.005C936.544 450.946 936.364 450.892 936.204 450.813C935.289 450.368 934.43 449.872 933.628 449.333ZM960.059 395.916C968.477 396.409 975.611 397.705 983.273 401.407L983.933 401.73C990.699 405.106 1001.89 411.342 1000.95 420.284C1000.68 422.829 998.852 425.506 995.955 425.305C988.029 424.76 983.49 416.726 978.121 411.715C972.704 406.665 966.051 401.472 959.493 398C958.568 397.512 958.936 395.964 959.937 395.915L960.059 395.916ZM921.861 278.096C919.841 278.163 920.52 280.134 921.558 278.488C921.643 278.355 921.747 278.221 921.861 278.096ZM1030.8 146.571C1011.69 147.075 992.455 158.414 978.13 169.874C965.674 179.844 954.926 191.704 945.395 204.487C942.951 210.852 940.847 217.35 939.063 223.897C937.893 228.22 937.157 232.591 936.185 236.953L935.874 238.289C935.109 239.735 934.534 241.291 934.118 242.899C935.855 244.647 938.101 245.899 940.582 246.494C941.385 246.684 942.045 247.098 942.573 247.648C944.565 244.302 946.31 240.771 947.32 237.027L947.358 236.855C951.198 230.543 955.36 224.428 959.823 218.523C972.147 202.216 985.708 187.353 1002.01 174.987C1014.38 165.614 1028.21 158.269 1042.9 153.497C1039.31 150.581 1035.22 148.274 1030.8 146.571Z" fill="black"/>
<path fill-rule="evenodd" clip-rule="evenodd" d="M1203.11 501.214C1196.1 503.254 1188.57 503.436 1181.42 501.329C1174.94 499.418 1168.28 495.211 1163.51 489.644C1159.27 484.699 1156.52 478.69 1156.63 472.274C1156.64 471.542 1156.91 470.931 1157.3 470.456C1157.74 469.945 1158.34 469.594 1158.98 469.442C1159.65 469.285 1160.35 469.34 1160.96 469.613C1161.49 469.861 1161.96 470.28 1162.25 470.894C1162.99 471.862 1163.71 472.816 1164.45 473.743C1170.35 481.057 1176.05 486.524 1184.92 488.485C1189.73 489.548 1194.53 489.076 1198.94 487.454C1203.67 485.715 1207.93 482.66 1211.27 478.75C1212.78 476.983 1214.56 476.262 1216.31 476.249C1218.28 476.236 1220.24 477.158 1221.71 478.633C1223.15 480.083 1224.12 482.052 1224.21 484.113C1224.29 485.921 1223.7 487.81 1222.14 489.496C1216.99 495.047 1210.33 499.114 1203.11 501.214ZM1202.89 409.598C1210.08 413.988 1221.04 424.225 1213.3 435.108C1204.2 444.704 1191.1 433.701 1184.63 428.726C1178.65 424.869 1171.92 434.787 1177.47 439.29C1224.14 474.003 1243.08 410.746 1206.53 404.437C1202.5 403.741 1201.01 408.24 1202.89 409.598ZM1135.65 390.282C1133.34 388.797 1130.62 388.288 1127.61 389.664C1125.26 390.74 1121.12 394.325 1118.26 399.038C1116.28 402.262 1114.9 406.044 1115.18 409.985C1115.26 410.9 1114.92 411.574 1114.39 412.073C1113.96 412.467 1113.36 412.756 1112.65 412.847C1112.05 412.924 1111.37 412.855 1110.82 412.682C1109.77 412.354 1109.22 411.673 1109.01 411.117C1107 405.75 1107.87 399.76 1110.12 394.356C1113.16 387.063 1118.69 380.955 1122.3 378.985C1128.5 375.614 1135.81 375.459 1142.02 378.893C1147.3 381.816 1150.59 386.536 1153.88 391.347C1154.58 392.369 1155.28 393.384 1155.99 394.381C1157.43 396.38 1157.57 398.362 1157.01 400.061C1156.4 401.944 1154.82 403.533 1152.86 404.365C1151.05 405.133 1148.94 405.242 1147.08 404.452C1145.51 403.785 1144.06 402.485 1143.15 400.278C1141.61 396.562 1139.04 392.462 1135.65 390.282ZM1252.99 398.549C1251.41 399.378 1250.17 399.627 1248.41 399.099C1247.44 398.806 1246.49 398.244 1245.73 397.49C1244.99 396.742 1244.45 395.812 1244.24 394.78C1243.73 392.235 1242.35 389.851 1240.37 388.297C1238.68 386.969 1236.55 386.265 1234.18 386.662C1231.64 387.09 1229.2 388.735 1227.53 390.673C1226.96 391.321 1226.53 392.058 1226.09 392.79C1225.27 394.158 1224.46 395.43 1223.32 396.435C1222.89 396.817 1222.24 397.081 1221.61 397.081C1221.36 397.081 1221.09 397.04 1220.85 396.963C1218.31 394.401 1217.82 392.459 1217.91 390.532C1217.99 388.511 1218.78 386.465 1220.07 384.556C1223.07 380.079 1228.78 376.407 1232.63 375.575C1237.9 374.437 1243.14 375.804 1247.34 378.763C1251.66 381.809 1254.86 386.537 1255.86 391.865C1256.1 393.148 1256 394.533 1255.51 395.734C1255.04 396.908 1254.21 397.913 1252.99 398.549ZM1147.28 342.541C1144.11 345.639 1140.37 346.119 1136.58 346.546C1134.48 346.786 1132.79 346.978 1131.14 347.353C1126.59 348.384 1122.1 349.938 1117.99 352.174C1113.71 354.513 1109.04 357.332 1105.68 360.945C1104.88 361.805 1104.13 362.706 1103.37 363.61C1102.69 364.435 1102.03 365.228 1101.33 365.994C1100.53 366.872 1099.76 367.793 1099.01 368.712C1098.53 369.487 1098.44 369.677 1098.35 369.876C1098.2 370.175 1098.04 370.509 1097.85 370.867C1097.59 371.357 1097.29 371.893 1096.98 372.38C1096.45 373.27 1096.17 373.515 1095.92 373.625C1095.51 373.806 1095.13 373.896 1094.76 373.848C1094.41 373.802 1094.08 373.632 1093.75 373.357C1092.13 371.977 1091.65 369.713 1091.69 367.31C1091.77 363.664 1093.11 359.627 1094.34 357.144C1097.21 351.377 1101.2 345.383 1105.98 341.078C1111.43 336.166 1117.42 332.446 1124.28 329.884C1128.54 328.29 1133.48 326.828 1138.12 327.013C1141.46 327.146 1144.66 328.144 1147.29 330.638C1148.92 332.169 1149.69 334.346 1149.69 336.523C1149.69 338.742 1148.88 340.974 1147.28 342.541ZM1259.43 370.912C1259.23 371.244 1258.95 371.472 1258.64 371.61C1258.31 371.753 1257.95 371.795 1257.6 371.736C1257.26 371.677 1256.92 371.519 1256.67 371.278C1256.42 371.047 1256.23 370.74 1256.14 370.365C1254.04 361.092 1249.96 354.192 1241.25 349.744C1236.97 347.555 1232.04 346.165 1227.37 345.056C1226.02 344.734 1224.59 344.524 1223.14 344.313C1218.62 343.65 1214.07 342.891 1211.13 339.221C1209.35 337.01 1208.6 334.182 1209.03 331.596C1209.42 329.161 1210.84 326.929 1213.41 325.591C1219.82 322.262 1227.79 325.529 1234.26 328.311C1234.74 328.518 1235.21 328.721 1235.67 328.916C1242 331.6 1247.77 335.143 1252.52 340.209C1256.28 344.23 1259.77 350.172 1261.18 356.285C1262.34 361.37 1262.07 366.562 1259.43 370.912Z" fill="black"/>
</svg>
