<svg width="248" height="111" viewBox="0 0 248 111" fill="none" xmlns="http://www.w3.org/2000/svg">
<path d="M55.2789 96.7786C49.8581 96.7786 44.4904 95.7109 39.4822 93.6364C34.474 91.5619 29.9234 88.5214 26.0903 84.6883C22.2572 80.8551 19.2166 76.3046 17.1422 71.2964C15.0677 66.2882 14 60.9205 14 55.4996C14 50.0788 15.0677 44.7111 17.1422 39.7029C19.2166 34.6947 22.2572 30.1441 26.0903 26.311C29.9234 22.4779 34.474 19.4373 39.4822 17.3629C44.4904 15.2884 49.8581 14.2207 55.2789 14.2207C60.6998 14.2207 66.0675 15.2884 71.0757 17.3629C76.0839 19.4373 80.6344 22.4779 84.4675 26.311C88.3007 30.1441 91.3412 34.6947 93.4157 39.7029C95.4902 44.7111 96.5579 50.0788 96.5579 55.4996C96.5579 60.9205 95.4902 66.2882 93.4157 71.2964C91.3412 76.3046 88.3007 80.8551 84.4675 84.6883C80.6344 88.5214 76.0839 91.5619 71.0757 93.6364C66.0675 95.7109 60.6998 96.7786 55.2789 96.7786ZM55.2789 96.7786H192.875M192.875 96.7786C181.928 96.7786 171.428 92.4296 163.687 84.6883C155.945 76.9469 151.596 66.4475 151.596 55.4996C151.596 44.5518 155.945 34.0523 163.687 26.311C171.428 18.5697 181.928 14.2207 192.875 14.2207C203.823 14.2207 214.323 18.5697 222.064 26.311C229.805 34.0523 234.154 44.5518 234.154 55.4996C234.154 66.4475 229.805 76.9469 222.064 84.6883C214.323 92.4296 203.823 96.7786 192.875 96.7786Z" stroke="#00E0FF" stroke-width="27.5193" stroke-linecap="round" stroke-linejoin="round"/>
</svg>
